<svg width="2392" height="49" viewBox="0 0 2392 49" fill="none" xmlns="http://www.w3.org/2000/svg">
<g filter="url(#filter0_d)">
<path d="M6.15496 38.6816L5.18919 38.4223L4.85096 39.6816H6.15496V38.6816ZM15.931 2.28164V1.28164H15.1641L14.9652 2.02226L15.931 2.28164ZM61.743 2.28164L62.7097 2.53753L63.0421 1.28164H61.743V2.28164ZM59.403 11.1216V12.1216H60.1727L60.3697 11.3775L59.403 11.1216ZM25.031 11.1216V10.1216H24.2642L24.0652 10.8622L25.031 11.1216ZM23.159 18.0896L22.1932 17.8302L21.8548 19.0896H23.159V18.0896ZM53.891 18.0896L54.8573 18.3469L55.1921 17.0896H53.891V18.0896ZM51.551 26.8776V27.8776H52.3195L52.5173 27.1349L51.551 26.8776ZM20.819 26.8776V25.8776H20.0522L19.8532 26.6181L20.819 26.8776ZM17.647 38.6816V39.6816H18.4137L18.6127 38.9412L17.647 38.6816ZM7.12074 38.941L16.8967 2.54102L14.9652 2.02226L5.18919 38.4223L7.12074 38.941ZM15.931 3.28164L61.743 3.28164V1.28164L15.931 1.28164V3.28164ZM60.7763 2.02575L58.4363 10.8657L60.3697 11.3775L62.7097 2.53753L60.7763 2.02575ZM59.403 10.1216L25.031 10.1216V12.1216L59.403 12.1216V10.1216ZM24.0652 10.8622L22.1932 17.8302L24.1247 18.3491L25.9967 11.3811L24.0652 10.8622ZM23.159 19.0896L53.891 19.0896V17.0896L23.159 17.0896V19.0896ZM52.9246 17.8323L50.5846 26.6203L52.5173 27.1349L54.8573 18.3469L52.9246 17.8323ZM51.551 25.8776H20.819V27.8776H51.551V25.8776ZM19.8532 26.6181L16.6812 38.4221L18.6127 38.9412L21.7847 27.1372L19.8532 26.6181ZM17.647 37.6816H6.15496V39.6816H17.647V37.6816ZM114.486 19.9096L113.521 19.6504L113.52 19.6523L114.486 19.9096ZM104.45 34.8336L104.978 35.683L104.983 35.6803L104.45 34.8336ZM70.9624 36.8096L70.5259 37.7093L70.5259 37.7093L70.9624 36.8096ZM63.8904 29.7896L62.9604 30.1573L62.9642 30.1666L63.8904 29.7896ZM63.6824 19.5456L64.6478 19.8065L64.6483 19.8046L63.6824 19.5456ZM68.3104 2.28164V1.28164H67.5432L67.3445 2.02271L68.3104 2.28164ZM79.8024 2.28164L80.7688 2.53875L81.1032 1.28164H79.8024V2.28164ZM75.2784 19.2856L76.2438 19.5466L76.2448 19.5428L75.2784 19.2856ZM76.7344 27.8136L76.0598 28.5519L76.0665 28.5579L76.0732 28.5638L76.7344 27.8136ZM97.0664 27.9176L97.569 28.7822L97.5765 28.7778L97.0664 27.9176ZM103.098 19.5456L104.063 19.8088L104.064 19.8046L103.098 19.5456ZM107.726 2.28164V1.28164H106.959L106.761 2.02271L107.726 2.28164ZM119.218 2.28164L120.184 2.5409L120.522 1.28164H119.218V2.28164ZM113.52 19.6523C111.731 26.3694 108.508 31.1018 103.918 33.987L104.983 35.6803C110.099 32.4642 113.567 27.2472 115.453 20.167L113.52 19.6523ZM103.923 33.9843C99.282 36.8681 92.9696 38.3576 84.8984 38.3576V40.3576C93.1899 40.3576 99.9121 38.8312 104.978 35.683L103.923 33.9843ZM84.8984 38.3576C79.1927 38.3576 74.7142 37.5184 71.3989 35.9099L70.5259 37.7093C74.2132 39.4983 79.0254 40.3576 84.8984 40.3576V38.3576ZM71.3989 35.9099C68.0709 34.2954 65.9183 32.1196 64.8166 29.4127L62.9642 30.1666C64.2892 33.4224 66.8512 35.9266 70.5259 37.7093L71.3989 35.9099ZM64.8204 29.422C63.7384 26.6853 63.6501 23.4981 64.6478 19.8065L62.717 19.2847C61.6348 23.2892 61.685 26.9313 62.9604 30.1573L64.8204 29.422ZM64.6483 19.8046L69.2763 2.54057L67.3445 2.02271L62.7165 19.2867L64.6483 19.8046ZM68.3104 3.28164H79.8024V1.28164H68.3104V3.28164ZM78.836 2.02453L74.312 19.0285L76.2448 19.5428L80.7688 2.53875L78.836 2.02453ZM74.313 19.0247C73.2262 23.0462 73.654 26.3534 76.0598 28.5519L77.409 27.0754C75.7935 25.5992 75.2507 23.2211 76.2438 19.5465L74.313 19.0247ZM76.0732 28.5638C78.38 30.597 81.8219 31.5176 86.1984 31.5176V29.5176C82.0469 29.5176 79.1795 28.6356 77.3956 27.0634L76.0732 28.5638ZM86.1984 31.5176C90.5975 31.5176 94.4028 30.623 97.569 28.7821L96.5638 27.0531C93.7673 28.679 90.3273 29.5176 86.1984 29.5176V31.5176ZM97.5765 28.7778C100.813 26.8585 102.965 23.8345 104.063 19.8088L102.134 19.2825C101.152 22.8834 99.2826 25.4408 96.5563 27.0575L97.5765 28.7778ZM104.064 19.8046L108.692 2.54057L106.761 2.02271L102.133 19.2867L104.064 19.8046ZM107.726 3.28164L119.218 3.28164V1.28164L107.726 1.28164V3.28164ZM118.253 2.02238L113.521 19.6504L115.452 20.1689L120.184 2.5409L118.253 2.02238ZM119.397 38.6816L118.431 38.4223L118.093 39.6816H119.397V38.6816ZM129.173 2.28164V1.28164H128.406L128.207 2.02226L129.173 2.28164ZM140.665 2.28164L141.631 2.54043L141.968 1.28164H140.665V2.28164ZM133.281 29.8416L132.315 29.5828L131.978 30.8416H133.281V29.8416ZM162.245 29.8416L163.21 30.1028L163.552 28.8416H162.245V29.8416ZM159.853 38.6816V39.6816H160.619L160.818 38.9428L159.853 38.6816ZM120.363 38.941L130.139 2.54102L128.207 2.02226L118.431 38.4223L120.363 38.941ZM129.173 3.28164H140.665V1.28164H129.173V3.28164ZM139.699 2.02284L132.315 29.5828L134.247 30.1004L141.631 2.54043L139.699 2.02284ZM133.281 30.8416H162.245V28.8416H133.281V30.8416ZM161.28 29.5804L158.888 38.4204L160.818 38.9428L163.21 30.1028L161.28 29.5804ZM159.853 37.6816H119.397V39.6816H159.853V37.6816ZM167.589 38.6816L166.623 38.4223L166.285 39.6816H167.589V38.6816ZM177.365 2.28164V1.28164H176.598L176.399 2.02226L177.365 2.28164ZM188.857 2.28164L189.822 2.54043L190.16 1.28164H188.857V2.28164ZM181.473 29.8416L180.507 29.5828L180.169 30.8416H181.473V29.8416ZM210.437 29.8416L211.402 30.1028L211.743 28.8416H210.437V29.8416ZM208.045 38.6816V39.6816H208.81L209.01 38.9428L208.045 38.6816ZM168.554 38.941L178.33 2.54102L176.399 2.02226L166.623 38.4223L168.554 38.941ZM177.365 3.28164L188.857 3.28164V1.28164L177.365 1.28164V3.28164ZM187.891 2.02284L180.507 29.5828L182.438 30.1004L189.822 2.54043L187.891 2.02284ZM181.473 30.8416L210.437 30.8416V28.8416L181.473 28.8416V30.8416ZM209.471 29.5804L207.079 38.4204L209.01 38.9428L211.402 30.1028L209.471 29.5804ZM208.045 37.6816L167.589 37.6816V39.6816L208.045 39.6816V37.6816ZM215.572 27.6056L214.606 27.3459L214.267 28.6056H215.572V27.6056ZM217.964 18.7136V17.7136H217.197L216.998 18.4539L217.964 18.7136ZM245.368 18.7136L246.334 18.9734L246.673 17.7136H245.368V18.7136ZM242.976 27.6056V28.6056H243.743L243.942 27.8654L242.976 27.6056ZM216.538 27.8654L218.93 18.9734L216.998 18.4539L214.606 27.3459L216.538 27.8654ZM217.964 19.7136L245.368 19.7136V17.7136L217.964 17.7136V19.7136ZM244.402 18.4539L242.01 27.3459L243.942 27.8654L246.334 18.9734L244.402 18.4539ZM242.976 26.6056H215.572V28.6056H242.976V26.6056ZM251.722 14.9176L252.595 15.4052L252.597 15.4004L251.722 14.9176ZM258.17 7.89764L257.599 7.07652L257.594 7.07983L258.17 7.89764ZM299.822 4.82964L299.36 5.7165L299.363 5.71807L299.822 4.82964ZM306.426 14.2416L306.623 15.2221L307.475 15.0508L307.424 14.1829L306.426 14.2416ZM294.518 16.6336L293.52 16.7002L293.596 17.8388L294.715 17.6141L294.518 16.6336ZM291.086 12.0056L290.65 12.9059L290.662 12.9114L291.086 12.0056ZM269.974 12.1616L270.33 13.0962L270.339 13.0924L269.974 12.1616ZM263.526 16.5816L262.728 15.9792L262.726 15.9816L263.526 16.5816ZM264.878 28.4376L264.344 29.2834L264.352 29.2882L264.359 29.2928L264.878 28.4376ZM285.782 28.9576L285.415 28.0275L285.41 28.0292L285.782 28.9576ZM291.814 24.1216L292.011 23.1412L291.338 23.006L290.97 23.5856L291.814 24.1216ZM303.202 26.4096L304.088 26.8736L304.707 25.692L303.399 25.4292L303.202 26.4096ZM297.17 33.6376L296.563 32.843L296.557 32.8471L297.17 33.6376ZM287.81 37.9536L288.05 38.9243L288.059 38.9222L287.81 37.9536ZM255.778 35.2496L255.231 36.087L255.234 36.089L255.778 35.2496ZM250.486 23.6016C250.486 20.6487 251.189 17.9224 252.595 15.4052L250.849 14.4301C249.273 17.2516 248.486 20.3146 248.486 23.6016H250.486ZM252.597 15.4004C254.007 12.8437 256.047 10.6139 258.745 8.71545L257.594 7.07983C254.676 9.13336 252.418 11.5835 250.846 14.4349L252.597 15.4004ZM258.74 8.71875C261.474 6.81895 264.798 5.31888 268.732 4.23363L268.2 2.30565C264.091 3.43906 260.551 5.02433 257.599 7.07653L258.74 8.71875ZM268.732 4.23363C272.65 3.15278 277.116 2.60564 282.142 2.60564V0.605638C276.975 0.605638 272.324 1.16782 268.2 2.30565L268.732 4.23363ZM282.142 2.60564C289.734 2.60564 295.441 3.67476 299.36 5.71649L300.284 3.94279C295.952 1.68585 289.872 0.605638 282.142 0.605638V2.60564ZM299.363 5.71807C303.259 7.73116 305.209 10.5801 305.427 14.3004L307.424 14.1829C307.158 9.65255 304.704 6.22678 300.281 3.94121L299.363 5.71807ZM306.229 13.2612L294.321 15.6532L294.715 17.6141L306.623 15.2221L306.229 13.2612ZM295.516 16.5671C295.349 14.0666 293.933 12.2337 291.509 11.0998L290.662 12.9114C292.537 13.7883 293.409 15.0406 293.52 16.7002L295.516 16.5671ZM291.521 11.1055C289.164 9.96466 285.667 9.44564 281.154 9.44564V11.4456C285.584 11.4456 288.709 11.9666 290.65 12.9058L291.521 11.1055ZM281.154 9.44564C276.539 9.44564 272.677 10.0254 269.608 11.2309L270.339 13.0924C273.095 12.0099 276.686 11.4456 281.154 11.4456V9.44564ZM269.618 11.2272C266.59 12.3805 264.261 13.9476 262.728 15.9792L264.324 17.184C265.564 15.541 267.533 14.1615 270.33 13.0961L269.618 11.2272ZM262.726 15.9816C261.258 17.9388 260.498 20.0698 260.498 22.3536H262.498C262.498 20.5468 263.09 18.8298 264.326 17.1816L262.726 15.9816ZM260.498 22.3536C260.498 25.3363 261.804 27.6814 264.344 29.2834L265.411 27.5918C263.444 26.3512 262.498 24.6403 262.498 22.3536H260.498ZM264.359 29.2928C266.887 30.8246 270.719 31.5176 275.694 31.5176V29.5176C270.823 29.5176 267.445 28.824 265.396 27.5824L264.359 29.2928ZM275.694 31.5176C279.891 31.5176 283.393 30.9902 286.153 29.8861L285.41 28.0292C282.97 29.0051 279.747 29.5176 275.694 29.5176V31.5176ZM286.149 29.8878C288.961 28.7779 291.147 27.0372 292.658 24.6576L290.97 23.5856C289.707 25.5741 287.872 27.0574 285.415 28.0275L286.149 29.8878ZM291.617 25.102L303.005 27.39L303.399 25.4292L292.011 23.1412L291.617 25.102ZM302.316 25.9456C300.855 28.7346 298.937 31.029 296.563 32.843L297.777 34.4323C300.394 32.4329 302.498 29.9087 304.088 26.8736L302.316 25.9456ZM296.557 32.8471C294.227 34.652 291.24 36.04 287.561 36.9851L288.059 38.9222C291.937 37.9259 295.189 36.4366 297.782 34.4282L296.557 32.8471ZM287.569 36.983C283.893 37.8936 279.386 38.3576 274.03 38.3576V40.3576C279.49 40.3576 284.169 39.8857 288.05 38.9243L287.569 36.983ZM274.03 38.3576C266.182 38.3576 260.32 36.9998 256.321 34.4103L255.234 36.089C259.694 38.9768 266 40.3576 274.03 40.3576V38.3576ZM256.324 34.4123C252.414 31.8591 250.486 28.292 250.486 23.6016H248.486C248.486 28.9647 250.752 33.1629 255.231 36.087L256.324 34.4123ZM320.953 38.6816L319.987 38.4222L319.649 39.6816H320.953V38.6816ZM324.697 24.7456L325.663 25.0051L325.783 24.5566L325.519 24.1752L324.697 24.7456ZM309.097 2.28164V1.28164L307.185 1.28164L308.276 2.85203L309.097 2.28164ZM322.721 2.28164L323.546 1.71551L323.248 1.28164H322.721V2.28164ZM332.185 16.0616L331.361 16.6278L331.985 17.5367L332.829 16.8269L332.185 16.0616ZM348.565 2.28164V1.28164H348.201L347.921 1.51641L348.565 2.28164ZM363.593 2.28164L364.238 3.04595L366.329 1.28164H363.593V2.28164ZM335.981 25.5776L335.336 24.8133L335.097 25.0151L335.016 25.3171L335.981 25.5776ZM332.445 38.6816V39.6816H333.211L333.411 38.9422L332.445 38.6816ZM321.919 38.9411L325.663 25.0051L323.731 24.4862L319.987 38.4222L321.919 38.9411ZM325.519 24.1752L309.919 1.71124L308.276 2.85203L323.876 25.316L325.519 24.1752ZM309.097 3.28164H322.721V1.28164H309.097V3.28164ZM321.897 2.84777L331.361 16.6278L333.01 15.4955L323.546 1.71551L321.897 2.84777ZM332.829 16.8269L349.209 3.04686L347.921 1.51641L331.541 15.2964L332.829 16.8269ZM348.565 3.28164H363.593V1.28164H348.565V3.28164ZM362.948 1.51732L335.336 24.8133L336.626 26.342L364.238 3.04595L362.948 1.51732ZM335.016 25.3171L331.48 38.4211L333.411 38.9422L336.947 25.8382L335.016 25.3171ZM332.445 37.6816L320.953 37.6816V39.6816L332.445 39.6816V37.6816ZM361.917 14.9176L362.79 15.4052L362.793 15.4004L361.917 14.9176ZM368.365 7.89764L367.794 7.07652L367.79 7.07983L368.365 7.89764ZM410.017 4.82964L409.555 5.7165L409.558 5.71807L410.017 4.82964ZM416.621 14.2416L416.818 15.2221L417.67 15.0508L417.619 14.1829L416.621 14.2416ZM404.713 16.6336L403.715 16.7002L403.791 17.8388L404.91 17.6141L404.713 16.6336ZM401.281 12.0056L400.845 12.9059L400.857 12.9114L401.281 12.0056ZM380.169 12.1616L380.525 13.0962L380.535 13.0924L380.169 12.1616ZM373.721 16.5816L372.923 15.9792L372.921 15.9816L373.721 16.5816ZM375.073 28.4376L374.54 29.2834L374.547 29.2882L374.555 29.2928L375.073 28.4376ZM395.977 28.9576L395.61 28.0275L395.606 28.0292L395.977 28.9576ZM402.009 24.1216L402.206 23.1412L401.533 23.006L401.165 23.5856L402.009 24.1216ZM413.397 26.4096L414.283 26.8736L414.902 25.692L413.594 25.4292L413.397 26.4096ZM407.365 33.6376L406.758 32.843L406.753 32.8471L407.365 33.6376ZM398.005 37.9536L398.245 38.9243L398.254 38.9222L398.005 37.9536ZM365.973 35.2496L365.426 36.087L365.429 36.089L365.973 35.2496ZM360.681 23.6016C360.681 20.6487 361.384 17.9224 362.79 15.4052L361.044 14.4301C359.468 17.2516 358.681 20.3146 358.681 23.6016H360.681ZM362.793 15.4004C364.202 12.8437 366.243 10.6139 368.941 8.71545L367.79 7.07983C364.871 9.13336 362.613 11.5835 361.041 14.4349L362.793 15.4004ZM368.936 8.71875C371.669 6.81895 374.993 5.31888 378.927 4.23363L378.395 2.30565C374.286 3.43906 370.747 5.02433 367.794 7.07653L368.936 8.71875ZM378.927 4.23363C382.845 3.15278 387.312 2.60564 392.337 2.60564V0.605638C387.17 0.605638 382.52 1.16782 378.395 2.30565L378.927 4.23363ZM392.337 2.60564C399.93 2.60564 405.636 3.67476 409.555 5.71649L410.479 3.94279C406.147 1.68585 400.067 0.605638 392.337 0.605638V2.60564ZM409.558 5.71807C413.454 7.73116 415.404 10.5801 415.623 14.3004L417.619 14.1829C417.353 9.65255 414.9 6.22678 410.476 3.94121L409.558 5.71807ZM416.424 13.2612L404.516 15.6532L404.91 17.6141L416.818 15.2221L416.424 13.2612ZM405.711 16.5671C405.544 14.0666 404.129 12.2337 401.705 11.0998L400.857 12.9114C402.732 13.7883 403.605 15.0406 403.715 16.7002L405.711 16.5671ZM401.717 11.1055C399.359 9.96466 395.862 9.44564 391.349 9.44564V11.4456C395.78 11.4456 398.905 11.9666 400.845 12.9058L401.717 11.1055ZM391.349 9.44564C386.734 9.44564 382.872 10.0254 379.803 11.2309L380.535 13.0924C383.29 12.0099 386.881 11.4456 391.349 11.4456V9.44564ZM379.813 11.2272C376.786 12.3805 374.456 13.9476 372.923 15.9792L374.519 17.184C375.759 15.541 377.728 14.1615 380.525 13.0961L379.813 11.2272ZM372.921 15.9816C371.453 17.9388 370.693 20.0698 370.693 22.3536H372.693C372.693 20.5468 373.285 18.8298 374.521 17.1816L372.921 15.9816ZM370.693 22.3536C370.693 25.3363 372 27.6814 374.54 29.2834L375.607 27.5918C373.64 26.3512 372.693 24.6403 372.693 22.3536H370.693ZM374.555 29.2928C377.082 30.8246 380.914 31.5176 385.889 31.5176V29.5176C381.018 29.5176 377.64 28.824 375.591 27.5824L374.555 29.2928ZM385.889 31.5176C390.087 31.5176 393.588 30.9902 396.348 29.8861L395.606 28.0292C393.166 29.0051 389.942 29.5176 385.889 29.5176V31.5176ZM396.344 29.8878C399.156 28.7779 401.342 27.0372 402.853 24.6576L401.165 23.5856C399.902 25.5741 398.067 27.0574 395.61 28.0275L396.344 29.8878ZM401.812 25.102L413.2 27.39L413.594 25.4292L402.206 23.1412L401.812 25.102ZM412.511 25.9456C411.05 28.7346 409.133 31.029 406.758 32.843L407.972 34.4323C410.589 32.4329 412.693 29.9087 414.283 26.8736L412.511 25.9456ZM406.753 32.8471C404.423 34.652 401.435 36.04 397.756 36.9851L398.254 38.9222C402.132 37.9259 405.385 36.4366 407.977 34.4282L406.753 32.8471ZM397.765 36.983C394.088 37.8936 389.581 38.3576 384.225 38.3576V40.3576C389.685 40.3576 394.364 39.8857 398.245 38.9243L397.765 36.983ZM384.225 38.3576C376.377 38.3576 370.516 36.9998 366.517 34.4103L365.429 36.089C369.889 38.9768 376.195 40.3576 384.225 40.3576V38.3576ZM366.52 34.4123C362.609 31.8591 360.681 28.292 360.681 23.6016H358.681C358.681 28.9647 360.948 33.1629 365.426 36.087L366.52 34.4123ZM417.991 38.6816L417.025 38.4223L416.687 39.6816H417.991V38.6816ZM427.767 2.28164V1.28164H427L426.801 2.02226L427.767 2.28164ZM439.259 2.28164L440.225 2.54043L440.562 1.28164H439.259V2.28164ZM431.875 29.8416L430.909 29.5828L430.572 30.8416H431.875V29.8416ZM460.839 29.8416L461.804 30.1028L462.145 28.8416H460.839V29.8416ZM458.447 38.6816V39.6816H459.212L459.412 38.9428L458.447 38.6816ZM418.957 38.941L428.733 2.54102L426.801 2.02226L417.025 38.4223L418.957 38.941ZM427.767 3.28164L439.259 3.28164V1.28164L427.767 1.28164V3.28164ZM438.293 2.02284L430.909 29.5828L432.841 30.1004L440.225 2.54043L438.293 2.02284ZM431.875 30.8416L460.839 30.8416V28.8416L431.875 28.8416V30.8416ZM459.874 29.5804L457.482 38.4204L459.412 38.9428L461.804 30.1028L459.874 29.5804ZM458.447 37.6816L417.991 37.6816V39.6816L458.447 39.6816V37.6816ZM466.182 38.6816L465.217 38.4223L464.878 39.6816H466.182V38.6816ZM475.958 2.28164V1.28164H475.191L474.993 2.02226L475.958 2.28164ZM521.77 2.28164L522.736 2.54007L523.073 1.28164H521.77V2.28164ZM519.586 10.4456V11.4456H520.354L520.552 10.7041L519.586 10.4456ZM484.902 10.4456V9.44564L484.135 9.44564L483.937 10.1863L484.902 10.4456ZM483.394 16.0616L482.429 15.8023L482.09 17.0616H483.394V16.0616ZM514.49 16.0616L515.456 16.3216L515.795 15.0616H514.49V16.0616ZM512.306 24.1736V25.1736H513.073L513.272 24.4336L512.306 24.1736ZM481.262 24.1736V23.1736H480.497L480.297 23.9125L481.262 24.1736ZM479.546 30.5176L478.581 30.2565L478.24 31.5176H479.546V30.5176ZM514.594 30.5176L515.56 30.7761L515.897 29.5176H514.594V30.5176ZM512.41 38.6816V39.6816H513.178L513.376 38.9401L512.41 38.6816ZM467.148 38.941L476.924 2.54102L474.993 2.02226L465.217 38.4223L467.148 38.941ZM475.958 3.28164L521.77 3.28164V1.28164L475.958 1.28164V3.28164ZM520.804 2.02321L518.62 10.1872L520.552 10.7041L522.736 2.54007L520.804 2.02321ZM519.586 9.44564H484.902V11.4456H519.586V9.44564ZM483.937 10.1863L482.429 15.8023L484.36 16.321L485.868 10.705L483.937 10.1863ZM483.394 17.0616L514.49 17.0616V15.0616L483.394 15.0616V17.0616ZM513.525 15.8017L511.341 23.9137L513.272 24.4336L515.456 16.3216L513.525 15.8017ZM512.306 23.1736H481.262V25.1736H512.306V23.1736ZM480.297 23.9125L478.581 30.2565L480.512 30.7787L482.228 24.4347L480.297 23.9125ZM479.546 31.5176H514.594V29.5176H479.546V31.5176ZM513.628 30.2592L511.444 38.4232L513.376 38.9401L515.56 30.7761L513.628 30.2592ZM512.41 37.6816H466.182V39.6816H512.41V37.6816ZM536.819 38.6816L535.853 38.4223L535.515 39.6816H536.819V38.6816ZM546.595 2.28164V1.28164H545.828L545.629 2.02226L546.595 2.28164ZM592.407 2.28164L593.373 2.54007L593.71 1.28164H592.407V2.28164ZM590.223 10.4456V11.4456H590.991L591.189 10.7041L590.223 10.4456ZM555.539 10.4456V9.44564H554.772L554.573 10.1863L555.539 10.4456ZM554.031 16.0616L553.065 15.8023L552.727 17.0616H554.031V16.0616ZM585.127 16.0616L586.093 16.3216L586.432 15.0616H585.127V16.0616ZM582.943 24.1736V25.1736H583.709L583.909 24.4336L582.943 24.1736ZM551.899 24.1736V23.1736H551.134L550.934 23.9125L551.899 24.1736ZM550.183 30.5176L549.218 30.2565L548.877 31.5176H550.183V30.5176ZM585.231 30.5176L586.197 30.7761L586.534 29.5176H585.231V30.5176ZM583.047 38.6816V39.6816H583.815L584.013 38.9401L583.047 38.6816ZM537.785 38.941L547.561 2.54102L545.629 2.02226L535.853 38.4223L537.785 38.941ZM546.595 3.28164L592.407 3.28164V1.28164L546.595 1.28164V3.28164ZM591.441 2.02321L589.257 10.1872L591.189 10.7041L593.373 2.54007L591.441 2.02321ZM590.223 9.44564H555.539V11.4456H590.223V9.44564ZM554.573 10.1863L553.065 15.8023L554.997 16.321L556.505 10.705L554.573 10.1863ZM554.031 17.0616H585.127V15.0616H554.031V17.0616ZM584.161 15.8017L581.977 23.9137L583.909 24.4336L586.093 16.3216L584.161 15.8017ZM582.943 23.1736L551.899 23.1736V25.1736L582.943 25.1736V23.1736ZM550.934 23.9125L549.218 30.2565L551.148 30.7787L552.864 24.4347L550.934 23.9125ZM550.183 31.5176L585.231 31.5176V29.5176L550.183 29.5176V31.5176ZM584.265 30.2592L582.081 38.4232L584.013 38.9401L586.197 30.7761L584.265 30.2592ZM583.047 37.6816L536.819 37.6816V39.6816L583.047 39.6816V37.6816ZM607.946 2.28164L608.888 1.94579L608.651 1.28164H607.946V2.28164ZM616.994 27.6576L616.052 27.9935L616.616 29.5757L617.738 28.3256L616.994 27.6576ZM639.77 2.28164V1.28164H639.324L639.026 1.61369L639.77 2.28164ZM653.29 2.28164L654.034 2.94943L655.531 1.28164H653.29V2.28164ZM620.634 38.6816V39.6816H621.08L621.378 39.3494L620.634 38.6816ZM608.83 38.6816L607.89 39.0215L608.128 39.6816H608.83V38.6816ZM595.674 2.28164V1.28164H594.249L594.734 2.62155L595.674 2.28164ZM607.004 2.61749L616.052 27.9935L617.936 27.3218L608.888 1.94579L607.004 2.61749ZM617.738 28.3256L640.514 2.94959L639.026 1.61369L616.25 26.9897L617.738 28.3256ZM639.77 3.28164H653.29V1.28164H639.77V3.28164ZM652.546 1.61385L619.89 38.0139L621.378 39.3494L654.034 2.94943L652.546 1.61385ZM620.634 37.6816H608.83V39.6816H620.634V37.6816ZM609.771 38.3417L596.615 1.94173L594.734 2.62155L607.89 39.0215L609.771 38.3417ZM595.674 3.28164L607.946 3.28164V1.28164L595.674 1.28164V3.28164ZM649.198 38.6816L648.232 38.4223L647.894 39.6816H649.198V38.6816ZM658.974 2.28164V1.28164H658.207L658.008 2.02226L658.974 2.28164ZM704.786 2.28164L705.752 2.54007L706.089 1.28164H704.786V2.28164ZM702.602 10.4456V11.4456H703.37L703.568 10.7041L702.602 10.4456ZM667.918 10.4456V9.44564H667.151L666.952 10.1863L667.918 10.4456ZM666.41 16.0616L665.444 15.8023L665.106 17.0616H666.41V16.0616ZM697.506 16.0616L698.472 16.3216L698.811 15.0616H697.506V16.0616ZM695.322 24.1736V25.1736H696.088L696.288 24.4336L695.322 24.1736ZM664.278 24.1736V23.1736H663.512L663.313 23.9125L664.278 24.1736ZM662.562 30.5176L661.597 30.2565L661.256 31.5176H662.562V30.5176ZM697.61 30.5176L698.576 30.7761L698.913 29.5176H697.61V30.5176ZM695.426 38.6816V39.6816H696.194L696.392 38.9401L695.426 38.6816ZM650.164 38.941L659.94 2.54102L658.008 2.02226L648.232 38.4223L650.164 38.941ZM658.974 3.28164L704.786 3.28164V1.28164L658.974 1.28164V3.28164ZM703.82 2.02321L701.636 10.1872L703.568 10.7041L705.752 2.54007L703.82 2.02321ZM702.602 9.44564L667.918 9.44564V11.4456L702.602 11.4456V9.44564ZM666.952 10.1863L665.444 15.8023L667.376 16.321L668.884 10.705L666.952 10.1863ZM666.41 17.0616L697.506 17.0616V15.0616L666.41 15.0616V17.0616ZM696.54 15.8017L694.356 23.9137L696.288 24.4336L698.472 16.3216L696.54 15.8017ZM695.322 23.1736H664.278V25.1736H695.322V23.1736ZM663.313 23.9125L661.597 30.2565L663.527 30.7787L665.243 24.4347L663.313 23.9125ZM662.562 31.5176H697.61V29.5176H662.562V31.5176ZM696.644 30.2592L694.46 38.4232L696.392 38.9401L698.576 30.7761L696.644 30.2592ZM695.426 37.6816H649.198V39.6816H695.426V37.6816ZM703.737 38.6816L702.771 38.4223L702.433 39.6816H703.737V38.6816ZM713.513 2.28164V1.28164H712.746L712.547 2.02226L713.513 2.28164ZM724.641 2.28164L725.387 1.61605L725.089 1.28164H724.641V2.28164ZM747.365 27.7616L746.619 28.4272L747.852 29.8105L748.331 28.0199L747.365 27.7616ZM754.177 2.28164V1.28164H753.409L753.211 2.02336L754.177 2.28164ZM764.993 2.28164L765.959 2.53973L766.295 1.28164H764.993V2.28164ZM755.269 38.6816V39.6816H756.037L756.235 38.9397L755.269 38.6816ZM744.141 38.6816L743.395 39.3472L743.693 39.6816H744.141V38.6816ZM721.417 13.2016L722.163 12.536L720.932 11.1559L720.451 12.9415L721.417 13.2016ZM714.553 38.6816V39.6816H715.319L715.519 38.9418L714.553 38.6816ZM704.703 38.941L714.479 2.54102L712.547 2.02226L702.771 38.4223L704.703 38.941ZM713.513 3.28164L724.641 3.28164V1.28164L713.513 1.28164V3.28164ZM723.895 2.94723L746.619 28.4272L748.111 27.096L725.387 1.61605L723.895 2.94723ZM748.331 28.0199L755.143 2.53991L753.211 2.02336L746.399 27.5034L748.331 28.0199ZM754.177 3.28164L764.993 3.28164V1.28164L754.177 1.28164V3.28164ZM764.027 2.02355L754.303 38.4235L756.235 38.9397L765.959 2.53973L764.027 2.02355ZM755.269 37.6816H744.141V39.6816H755.269V37.6816ZM744.887 38.016L722.163 12.536L720.671 13.8672L743.395 39.3472L744.887 38.016ZM720.451 12.9415L713.587 38.4215L715.519 38.9418L722.383 13.4618L720.451 12.9415ZM714.553 37.6816L703.737 37.6816V39.6816L714.553 39.6816V37.6816ZM781.691 38.6816L780.726 38.4228L780.388 39.6816H781.691V38.6816ZM789.075 11.1216L790.041 11.3804L790.379 10.1216H789.075V11.1216ZM769.627 11.1216L768.662 10.8604L768.321 12.1216H769.627V11.1216ZM772.019 2.28164V1.28164H771.254L771.054 2.02044L772.019 2.28164ZM822.408 2.28164L823.373 2.54283L823.714 1.28164H822.408V2.28164ZM820.016 11.1216V12.1216H820.781L820.981 11.3828L820.016 11.1216ZM800.567 11.1216V10.1216H799.8L799.602 10.8628L800.567 11.1216ZM793.183 38.6816V39.6816H793.951L794.149 38.9404L793.183 38.6816ZM782.657 38.9404L790.041 11.3804L788.11 10.8628L780.726 38.4228L782.657 38.9404ZM789.075 10.1216H769.627V12.1216H789.075V10.1216ZM770.593 11.3828L772.985 2.54283L771.054 2.02044L768.662 10.8604L770.593 11.3828ZM772.019 3.28164L822.408 3.28164V1.28164L772.019 1.28164V3.28164ZM821.442 2.02044L819.05 10.8604L820.981 11.3828L823.373 2.54283L821.442 2.02044ZM820.016 10.1216L800.567 10.1216V12.1216L820.016 12.1216V10.1216ZM799.602 10.8628L792.218 38.4228L794.149 38.9404L801.533 11.3804L799.602 10.8628ZM793.183 37.6816H781.691V39.6816H793.183V37.6816ZM878.72 38.6816L877.786 39.0376L878.031 39.6816H878.72V38.6816ZM876.224 32.1296L877.159 31.7736L876.913 31.1296H876.224V32.1296ZM849.756 32.1296V31.1296H849.318L849.021 31.4523L849.756 32.1296ZM843.724 38.6816V39.6816H844.163L844.46 39.359L843.724 38.6816ZM830.256 38.6816L829.527 37.9978L827.949 39.6816H830.256V38.6816ZM864.368 2.28164V1.28164H863.935L863.639 1.59784L864.368 2.28164ZM876.172 2.28164L877.1 1.9091L876.848 1.28164H876.172V2.28164ZM890.784 38.6816V39.6816H892.263L891.712 38.3091L890.784 38.6816ZM857.348 23.9136L856.613 23.2358L855.066 24.9136H857.348V23.9136ZM873.052 23.9136V24.9136H874.509L873.985 23.5541L873.052 23.9136ZM868.424 11.9016L869.357 11.5421L868.779 10.0415L867.689 11.2238L868.424 11.9016ZM879.655 38.3256L877.159 31.7736L875.29 32.4856L877.786 39.0376L879.655 38.3256ZM876.224 31.1296H849.756V33.1296H876.224V31.1296ZM849.021 31.4523L842.989 38.0043L844.46 39.359L850.492 32.807L849.021 31.4523ZM843.724 37.6816L830.256 37.6816V39.6816L843.724 39.6816V37.6816ZM830.986 39.3654L865.098 2.96544L863.639 1.59784L829.527 37.9978L830.986 39.3654ZM864.368 3.28164H876.172V1.28164H864.368V3.28164ZM875.244 2.65417L889.856 39.0542L891.712 38.3091L877.1 1.9091L875.244 2.65417ZM890.784 37.6816H878.72V39.6816H890.784V37.6816ZM857.348 24.9136H873.052V22.9136H857.348V24.9136ZM873.985 23.5541L869.357 11.5421L867.491 12.2612L872.119 24.2732L873.985 23.5541ZM867.689 11.2238L856.613 23.2358L858.083 24.5915L869.159 12.5795L867.689 11.2238ZM897.457 14.8656L896.584 14.3781L896.584 14.3781L897.457 14.8656ZM903.905 7.89764L903.335 7.07652L903.33 7.07983L903.905 7.89764ZM945.557 4.72564L945.107 5.61856L945.107 5.61856L945.557 4.72564ZM952.161 13.8776L952.353 14.859L953.22 14.6895L953.159 13.8088L952.161 13.8776ZM940.201 16.2176L939.204 16.2889L939.284 17.416L940.393 17.199L940.201 16.2176ZM936.769 11.9016L936.352 12.8105L936.361 12.8146L936.37 12.8185L936.769 11.9016ZM915.657 12.1616L916.013 13.0962L916.023 13.0924L915.657 12.1616ZM909.209 16.5816L908.411 15.9792L908.409 15.9816L909.209 16.5816ZM910.717 28.4376L910.201 29.294L910.208 29.2985L910.216 29.3028L910.717 28.4376ZM932.037 29.3736L932.299 30.3387L932.299 30.3387L932.037 29.3736ZM938.693 25.7336L939.408 26.4333L941.072 24.7336H938.693V25.7336ZM922.469 25.7336L921.503 25.4756L921.167 26.7336H922.469V25.7336ZM924.497 18.1416V17.1416H923.729L923.531 17.8836L924.497 18.1416ZM952.889 18.1416L953.855 18.4008L954.193 17.1416H952.889V18.1416ZM947.377 38.6816V39.6816H948.144L948.343 38.9408L947.377 38.6816ZM938.537 38.6816L937.542 38.5813L937.431 39.6816H938.537V38.6816ZM939.161 32.4936L940.156 32.594L940.408 30.0929L938.507 31.7373L939.161 32.4936ZM929.957 37.5896L929.644 36.64L929.641 36.641L929.957 37.5896ZM900.785 35.2496L900.186 36.0506L900.195 36.0568L900.785 35.2496ZM896.221 23.5496C896.221 20.5967 896.925 17.8704 898.33 15.3532L896.584 14.3781C895.009 17.1996 894.221 20.2626 894.221 23.5496H896.221ZM898.33 15.3532C899.739 12.8302 901.78 10.6158 904.481 8.71545L903.33 7.07983C900.414 9.13149 898.157 11.5624 896.584 14.3781L898.33 15.3532ZM904.476 8.71875C907.209 6.81895 910.533 5.31888 914.467 4.23363L913.935 2.30565C909.827 3.43906 906.287 5.02433 903.335 7.07653L904.476 8.71875ZM914.467 4.23363C918.385 3.15278 922.852 2.60564 927.877 2.60564V0.605638C922.711 0.605638 918.06 1.16782 913.935 2.30565L914.467 4.23363ZM927.877 2.60564C935.473 2.60564 941.184 3.64075 945.107 5.61856L946.008 3.83272C941.68 1.65052 935.604 0.605638 927.877 0.605638V2.60564ZM945.107 5.61856C948.972 7.56735 950.915 10.3344 951.164 13.9464L953.159 13.8088C952.853 9.37818 950.393 6.04393 946.008 3.83272L945.107 5.61856ZM951.969 12.8962L940.009 15.2362L940.393 17.199L952.353 14.859L951.969 12.8962ZM941.199 16.1464C941.028 13.7507 939.575 12.0329 937.169 10.9848L936.37 12.8185C938.262 13.6424 939.098 14.8019 939.204 16.2889L941.199 16.1464ZM937.186 10.9928C934.868 9.92878 931.378 9.44564 926.837 9.44564V11.4456C931.31 11.4456 934.441 11.9332 936.352 12.8105L937.186 10.9928ZM926.837 9.44564C922.222 9.44564 918.36 10.0254 915.292 11.2309L916.023 13.0924C918.779 12.0099 922.369 11.4456 926.837 11.4456V9.44564ZM915.301 11.2272C912.274 12.3805 909.944 13.9476 908.411 15.9792L910.007 17.184C911.248 15.541 913.217 14.1615 916.013 13.0961L915.301 11.2272ZM908.409 15.9816C906.941 17.9388 906.181 20.0698 906.181 22.3536H908.181C908.181 20.5468 908.773 18.8298 910.009 17.1816L908.409 15.9816ZM906.181 22.3536C906.181 25.3575 907.56 27.7016 910.201 29.294L911.234 27.5813C909.16 26.331 908.181 24.6191 908.181 22.3536H906.181ZM910.216 29.3028C912.837 30.8226 916.709 31.5176 921.689 31.5176V29.5176C916.824 29.5176 913.381 28.826 911.219 27.5725L910.216 29.3028ZM921.689 31.5176C925.836 31.5176 929.379 31.1318 932.299 30.3387L931.775 28.4086C929.079 29.1408 925.724 29.5176 921.689 29.5176V31.5176ZM932.299 30.3387C935.237 29.5409 937.626 28.2525 939.408 26.4333L937.979 25.034C936.501 26.5428 934.454 27.6811 931.775 28.4086L932.299 30.3387ZM938.693 24.7336H922.469V26.7336H938.693V24.7336ZM923.435 25.9917L925.463 18.3997L923.531 17.8836L921.503 25.4756L923.435 25.9917ZM924.497 19.1416L952.889 19.1416V17.1416L924.497 17.1416V19.1416ZM951.923 17.8825L946.411 38.4225L948.343 38.9408L953.855 18.4008L951.923 17.8825ZM947.377 37.6816H938.537V39.6816H947.377V37.6816ZM939.532 38.782L940.156 32.594L938.166 32.3933L937.542 38.5813L939.532 38.782ZM938.507 31.7373C936.052 33.8608 933.103 35.4982 929.644 36.64L930.271 38.5392C933.953 37.3237 937.14 35.5638 939.815 33.25L938.507 31.7373ZM929.641 36.641C926.222 37.7806 922.396 38.3576 918.153 38.3576V40.3576C922.577 40.3576 926.621 39.756 930.274 38.5383L929.641 36.641ZM918.153 38.3576C910.399 38.3576 904.866 36.9956 901.376 34.4425L900.195 36.0568C904.193 38.981 910.238 40.3576 918.153 40.3576V38.3576ZM901.384 34.4487C897.951 31.8821 896.221 28.2922 896.221 23.5496H894.221C894.221 28.8604 896.201 33.0705 900.187 36.0505L901.384 34.4487ZM956.983 38.6816L956.017 38.4223L955.679 39.6816H956.983V38.6816ZM966.759 2.28164V1.28164H965.992L965.793 2.02226L966.759 2.28164ZM1012.57 2.28164L1013.54 2.54007L1013.87 1.28164H1012.57V2.28164ZM1010.39 10.4456V11.4456H1011.15L1011.35 10.7041L1010.39 10.4456ZM975.703 10.4456V9.44564H974.936L974.737 10.1863L975.703 10.4456ZM974.195 16.0616L973.229 15.8023L972.891 17.0616H974.195V16.0616ZM1005.29 16.0616L1006.26 16.3216L1006.6 15.0616H1005.29V16.0616ZM1003.11 24.1736V25.1736H1003.87L1004.07 24.4336L1003.11 24.1736ZM972.063 24.1736V23.1736H971.298L971.098 23.9125L972.063 24.1736ZM970.347 30.5176L969.382 30.2565L969.041 31.5176H970.347V30.5176ZM1005.4 30.5176L1006.36 30.7761L1006.7 29.5176H1005.4V30.5176ZM1003.21 38.6816V39.6816H1003.98L1004.18 38.9401L1003.21 38.6816ZM957.949 38.941L967.725 2.54102L965.793 2.02226L956.017 38.4223L957.949 38.941ZM966.759 3.28164L1012.57 3.28164V1.28164L966.759 1.28164V3.28164ZM1011.61 2.02321L1009.42 10.1872L1011.35 10.7041L1013.54 2.54007L1011.61 2.02321ZM1010.39 9.44564L975.703 9.44564V11.4456L1010.39 11.4456V9.44564ZM974.737 10.1863L973.229 15.8023L975.161 16.321L976.669 10.705L974.737 10.1863ZM974.195 17.0616L1005.29 17.0616V15.0616L974.195 15.0616V17.0616ZM1004.33 15.8017L1002.14 23.9137L1004.07 24.4336L1006.26 16.3216L1004.33 15.8017ZM1003.11 23.1736H972.063V25.1736H1003.11V23.1736ZM971.098 23.9125L969.382 30.2565L971.312 30.7787L973.028 24.4347L971.098 23.9125ZM970.347 31.5176H1005.4V29.5176H970.347V31.5176ZM1004.43 30.2592L1002.25 38.4232L1004.18 38.9401L1006.36 30.7761L1004.43 30.2592ZM1003.21 37.6816L956.983 37.6816V39.6816L1003.21 39.6816V37.6816ZM1011.52 38.6816L1010.56 38.4223L1010.22 39.6816H1011.52V38.6816ZM1021.3 2.28164V1.28164H1020.53L1020.33 2.02226L1021.3 2.28164ZM1032.43 2.28164L1033.17 1.61605L1032.87 1.28164H1032.43V2.28164ZM1055.15 27.7616L1054.4 28.4272L1055.64 29.8105L1056.12 28.0199L1055.15 27.7616ZM1061.96 2.28164V1.28164H1061.19L1061 2.02336L1061.96 2.28164ZM1072.78 2.28164L1073.74 2.53973L1074.08 1.28164H1072.78V2.28164ZM1063.05 38.6816V39.6816H1063.82L1064.02 38.9397L1063.05 38.6816ZM1051.93 38.6816L1051.18 39.3472L1051.48 39.6816H1051.93V38.6816ZM1029.2 13.2016L1029.95 12.536L1028.72 11.1559L1028.24 12.9415L1029.2 13.2016ZM1022.34 38.6816V39.6816H1023.1L1023.3 38.9418L1022.34 38.6816ZM1012.49 38.941L1022.26 2.54102L1020.33 2.02226L1010.56 38.4223L1012.49 38.941ZM1021.3 3.28164H1032.43V1.28164H1021.3V3.28164ZM1031.68 2.94723L1054.4 28.4272L1055.9 27.096L1033.17 1.61605L1031.68 2.94723ZM1056.12 28.0199L1062.93 2.53991L1061 2.02336L1054.18 27.5034L1056.12 28.0199ZM1061.96 3.28164H1072.78V1.28164H1061.96V3.28164ZM1071.81 2.02355L1062.09 38.4235L1064.02 38.9397L1073.74 2.53973L1071.81 2.02355ZM1063.05 37.6816H1051.93V39.6816H1063.05V37.6816ZM1052.67 38.016L1029.95 12.536L1028.46 13.8672L1051.18 39.3472L1052.67 38.016ZM1028.24 12.9415L1021.37 38.4215L1023.3 38.9418L1030.17 13.4618L1028.24 12.9415ZM1022.34 37.6816H1011.52V39.6816H1022.34V37.6816ZM1077.93 14.9176L1078.81 15.4052L1078.81 15.4004L1077.93 14.9176ZM1084.38 7.89764L1083.81 7.07652L1083.81 7.07983L1084.38 7.89764ZM1126.03 4.82964L1125.57 5.7165L1125.57 5.71807L1126.03 4.82964ZM1132.64 14.2416L1132.83 15.2221L1133.69 15.0508L1133.63 14.1829L1132.64 14.2416ZM1120.73 16.6336L1119.73 16.7002L1119.81 17.8388L1120.93 17.6141L1120.73 16.6336ZM1117.3 12.0056L1116.86 12.9059L1116.87 12.9114L1117.3 12.0056ZM1096.18 12.1616L1096.54 13.0962L1096.55 13.0924L1096.18 12.1616ZM1089.74 16.5816L1088.94 15.9792L1088.94 15.9816L1089.74 16.5816ZM1091.09 28.4376L1090.56 29.2834L1090.56 29.2882L1090.57 29.2928L1091.09 28.4376ZM1111.99 28.9576L1111.63 28.0275L1111.62 28.0292L1111.99 28.9576ZM1118.02 24.1216L1118.22 23.1412L1117.55 23.006L1117.18 23.5856L1118.02 24.1216ZM1129.41 26.4096L1130.3 26.8736L1130.92 25.692L1129.61 25.4292L1129.41 26.4096ZM1123.38 33.6376L1122.77 32.843L1122.77 32.8471L1123.38 33.6376ZM1114.02 37.9536L1114.26 38.9243L1114.27 38.9222L1114.02 37.9536ZM1081.99 35.2496L1081.44 36.087L1081.45 36.089L1081.99 35.2496ZM1076.7 23.6016C1076.7 20.6487 1077.4 17.9224 1078.81 15.4052L1077.06 14.4301C1075.48 17.2516 1074.7 20.3146 1074.7 23.6016H1076.7ZM1078.81 15.4004C1080.22 12.8437 1082.26 10.6139 1084.96 8.71545L1083.81 7.07983C1080.89 9.13336 1078.63 11.5835 1077.06 14.4349L1078.81 15.4004ZM1084.95 8.71875C1087.68 6.81895 1091.01 5.31888 1094.94 4.23363L1094.41 2.30565C1090.3 3.43906 1086.76 5.02433 1083.81 7.07653L1084.95 8.71875ZM1094.94 4.23363C1098.86 3.15278 1103.33 2.60564 1108.35 2.60564V0.605638C1103.19 0.605638 1098.54 1.16782 1094.41 2.30565L1094.94 4.23363ZM1108.35 2.60564C1115.95 2.60564 1121.65 3.67476 1125.57 5.71649L1126.49 3.94279C1122.16 1.68585 1116.08 0.605638 1108.35 0.605638V2.60564ZM1125.57 5.71807C1129.47 7.73116 1131.42 10.5801 1131.64 14.3004L1133.63 14.1829C1133.37 9.65255 1130.92 6.22678 1126.49 3.94121L1125.57 5.71807ZM1132.44 13.2612L1120.53 15.6532L1120.93 17.6141L1132.83 15.2221L1132.44 13.2612ZM1121.73 16.5671C1121.56 14.0666 1120.14 12.2337 1117.72 11.0998L1116.87 12.9114C1118.75 13.7883 1119.62 15.0406 1119.73 16.7002L1121.73 16.5671ZM1117.73 11.1055C1115.37 9.96466 1111.88 9.44564 1107.36 9.44564V11.4456C1111.8 11.4456 1114.92 11.9666 1116.86 12.9058L1117.73 11.1055ZM1107.36 9.44564C1102.75 9.44564 1098.89 10.0254 1095.82 11.2309L1096.55 13.0924C1099.31 12.0099 1102.9 11.4456 1107.36 11.4456V9.44564ZM1095.83 11.2272C1092.8 12.3805 1090.47 13.9476 1088.94 15.9792L1090.53 17.184C1091.77 15.541 1093.74 14.1615 1096.54 13.0961L1095.83 11.2272ZM1088.94 15.9816C1087.47 17.9388 1086.71 20.0698 1086.71 22.3536H1088.71C1088.71 20.5468 1089.3 18.8298 1090.54 17.1816L1088.94 15.9816ZM1086.71 22.3536C1086.71 25.3363 1088.02 27.6814 1090.56 29.2834L1091.62 27.5918C1089.66 26.3512 1088.71 24.6403 1088.71 22.3536H1086.71ZM1090.57 29.2928C1093.1 30.8246 1096.93 31.5176 1101.9 31.5176V29.5176C1097.03 29.5176 1093.66 28.824 1091.61 27.5824L1090.57 29.2928ZM1101.9 31.5176C1106.1 31.5176 1109.6 30.9902 1112.36 29.8861L1111.62 28.0292C1109.18 29.0051 1105.96 29.5176 1101.9 29.5176V31.5176ZM1112.36 29.8878C1115.17 28.7779 1117.36 27.0372 1118.87 24.6576L1117.18 23.5856C1115.92 25.5741 1114.08 27.0574 1111.63 28.0275L1112.36 29.8878ZM1117.83 25.102L1129.22 27.39L1129.61 25.4292L1118.22 23.1412L1117.83 25.102ZM1128.53 25.9456C1127.07 28.7346 1125.15 31.029 1122.77 32.843L1123.99 34.4323C1126.61 32.4329 1128.71 29.9087 1130.3 26.8736L1128.53 25.9456ZM1122.77 32.8471C1120.44 34.652 1117.45 36.04 1113.77 36.9851L1114.27 38.9222C1118.15 37.9259 1121.4 36.4366 1123.99 34.4282L1122.77 32.8471ZM1113.78 36.983C1110.1 37.8936 1105.6 38.3576 1100.24 38.3576V40.3576C1105.7 40.3576 1110.38 39.8857 1114.26 38.9243L1113.78 36.983ZM1100.24 38.3576C1092.39 38.3576 1086.53 36.9998 1082.53 34.4103L1081.45 36.089C1085.9 38.9768 1092.21 40.3576 1100.24 40.3576V38.3576ZM1082.54 34.4123C1078.62 31.8591 1076.7 28.292 1076.7 23.6016H1074.7C1074.7 28.9647 1076.96 33.1629 1081.44 36.087L1082.54 34.4123ZM1147.16 38.6816L1146.2 38.4222L1145.86 39.6816H1147.16V38.6816ZM1150.91 24.7456L1151.87 25.0051L1151.99 24.5566L1151.73 24.1752L1150.91 24.7456ZM1135.31 2.28164V1.28164H1133.4L1134.49 2.85203L1135.31 2.28164ZM1148.93 2.28164L1149.76 1.71551L1149.46 1.28164H1148.93V2.28164ZM1158.4 16.0616L1157.57 16.6278L1158.2 17.5367L1159.04 16.8269L1158.4 16.0616ZM1174.78 2.28164V1.28164H1174.41L1174.13 1.51641L1174.78 2.28164ZM1189.8 2.28164L1190.45 3.04595L1192.54 1.28164H1189.8V2.28164ZM1162.19 25.5776L1161.55 24.8133L1161.31 25.0151L1161.23 25.3171L1162.19 25.5776ZM1158.66 38.6816V39.6816H1159.42L1159.62 38.9422L1158.66 38.6816ZM1148.13 38.9411L1151.87 25.0051L1149.94 24.4862L1146.2 38.4222L1148.13 38.9411ZM1151.73 24.1752L1136.13 1.71124L1134.49 2.85203L1150.09 25.316L1151.73 24.1752ZM1135.31 3.28164L1148.93 3.28164V1.28164L1135.31 1.28164V3.28164ZM1148.11 2.84777L1157.57 16.6278L1159.22 15.4955L1149.76 1.71551L1148.11 2.84777ZM1159.04 16.8269L1175.42 3.04686L1174.13 1.51641L1157.75 15.2964L1159.04 16.8269ZM1174.78 3.28164H1189.8V1.28164H1174.78V3.28164ZM1189.16 1.51732L1161.55 24.8133L1162.84 26.342L1190.45 3.04595L1189.16 1.51732ZM1161.23 25.3171L1157.69 38.4211L1159.62 38.9422L1163.16 25.8382L1161.23 25.3171ZM1158.66 37.6816H1147.16V39.6816H1158.66V37.6816ZM1200.99 38.6816L1200.02 38.4223L1199.68 39.6816H1200.99V38.6816ZM1210.76 2.28164V1.28164H1210L1209.8 2.02226L1210.76 2.28164ZM1256.57 2.28164L1257.54 2.53753L1257.87 1.28164H1256.57V2.28164ZM1254.23 11.1216V12.1216H1255L1255.2 11.3775L1254.23 11.1216ZM1219.86 11.1216V10.1216H1219.1L1218.9 10.8622L1219.86 11.1216ZM1217.99 18.0896L1217.03 17.8302L1216.69 19.0896H1217.99V18.0896ZM1248.72 18.0896L1249.69 18.3469L1250.02 17.0896H1248.72V18.0896ZM1246.38 26.8776V27.8776H1247.15L1247.35 27.1349L1246.38 26.8776ZM1215.65 26.8776V25.8776H1214.88L1214.69 26.6181L1215.65 26.8776ZM1212.48 38.6816V39.6816H1213.25L1213.44 38.9412L1212.48 38.6816ZM1201.95 38.941L1211.73 2.54102L1209.8 2.02226L1200.02 38.4223L1201.95 38.941ZM1210.76 3.28164L1256.57 3.28164V1.28164L1210.76 1.28164V3.28164ZM1255.61 2.02575L1253.27 10.8657L1255.2 11.3775L1257.54 2.53753L1255.61 2.02575ZM1254.23 10.1216L1219.86 10.1216V12.1216L1254.23 12.1216V10.1216ZM1218.9 10.8622L1217.03 17.8302L1218.96 18.3491L1220.83 11.3811L1218.9 10.8622ZM1217.99 19.0896H1248.72V17.0896H1217.99V19.0896ZM1247.76 17.8323L1245.42 26.6203L1247.35 27.1349L1249.69 18.3469L1247.76 17.8323ZM1246.38 25.8776L1215.65 25.8776V27.8776L1246.38 27.8776V25.8776ZM1214.69 26.6181L1211.51 38.4221L1213.44 38.9412L1216.62 27.1372L1214.69 26.6181ZM1212.48 37.6816H1200.99V39.6816H1212.48V37.6816ZM1309.32 19.9096L1308.35 19.6504L1308.35 19.6523L1309.32 19.9096ZM1299.28 34.8336L1299.81 35.683L1299.81 35.6803L1299.28 34.8336ZM1265.79 36.8096L1265.36 37.7093L1265.36 37.7093L1265.79 36.8096ZM1258.72 29.7896L1257.79 30.1573L1257.8 30.1666L1258.72 29.7896ZM1258.51 19.5456L1259.48 19.8065L1259.48 19.8046L1258.51 19.5456ZM1263.14 2.28164V1.28164H1262.38L1262.18 2.02271L1263.14 2.28164ZM1274.63 2.28164L1275.6 2.53875L1275.94 1.28164H1274.63V2.28164ZM1270.11 19.2856L1271.08 19.5466L1271.08 19.5428L1270.11 19.2856ZM1271.57 27.8136L1270.89 28.5519L1270.9 28.5579L1270.91 28.5638L1271.57 27.8136ZM1291.9 27.9176L1292.4 28.7822L1292.41 28.7778L1291.9 27.9176ZM1297.93 19.5456L1298.9 19.8088L1298.9 19.8046L1297.93 19.5456ZM1302.56 2.28164V1.28164H1301.79L1301.59 2.02271L1302.56 2.28164ZM1314.05 2.28164L1315.02 2.5409L1315.35 1.28164H1314.05V2.28164ZM1308.35 19.6523C1306.56 26.3694 1303.34 31.1018 1298.75 33.987L1299.81 35.6803C1304.93 32.4642 1308.4 27.2472 1310.28 20.167L1308.35 19.6523ZM1298.75 33.9843C1294.11 36.8681 1287.8 38.3576 1279.73 38.3576V40.3576C1288.02 40.3576 1294.74 38.8312 1299.81 35.683L1298.75 33.9843ZM1279.73 38.3576C1274.02 38.3576 1269.55 37.5184 1266.23 35.9099L1265.36 37.7093C1269.05 39.4983 1273.86 40.3576 1279.73 40.3576V38.3576ZM1266.23 35.9099C1262.9 34.2954 1260.75 32.1196 1259.65 29.4127L1257.8 30.1666C1259.12 33.4224 1261.68 35.9266 1265.36 37.7093L1266.23 35.9099ZM1259.65 29.422C1258.57 26.6853 1258.48 23.4981 1259.48 19.8065L1257.55 19.2847C1256.47 23.2892 1256.52 26.9313 1257.79 30.1573L1259.65 29.422ZM1259.48 19.8046L1264.11 2.54057L1262.18 2.02271L1257.55 19.2867L1259.48 19.8046ZM1263.14 3.28164L1274.63 3.28164V1.28164L1263.14 1.28164V3.28164ZM1273.67 2.02453L1269.14 19.0285L1271.08 19.5428L1275.6 2.53875L1273.67 2.02453ZM1269.15 19.0247C1268.06 23.0462 1268.49 26.3534 1270.89 28.5519L1272.24 27.0754C1270.63 25.5992 1270.08 23.2211 1271.08 19.5465L1269.15 19.0247ZM1270.91 28.5638C1273.21 30.597 1276.65 31.5176 1281.03 31.5176V29.5176C1276.88 29.5176 1274.01 28.6356 1272.23 27.0634L1270.91 28.5638ZM1281.03 31.5176C1285.43 31.5176 1289.23 30.623 1292.4 28.7821L1291.4 27.0531C1288.6 28.679 1285.16 29.5176 1281.03 29.5176V31.5176ZM1292.41 28.7778C1295.64 26.8585 1297.8 23.8345 1298.9 19.8088L1296.97 19.2825C1295.98 22.8834 1294.11 25.4408 1291.39 27.0575L1292.41 28.7778ZM1298.9 19.8046L1303.52 2.54057L1301.59 2.02271L1296.96 19.2867L1298.9 19.8046ZM1302.56 3.28164H1314.05V1.28164H1302.56V3.28164ZM1313.08 2.02238L1308.35 19.6504L1310.28 20.1689L1315.02 2.5409L1313.08 2.02238ZM1314.23 38.6816L1313.26 38.4223L1312.93 39.6816H1314.23V38.6816ZM1324.01 2.28164V1.28164H1323.24L1323.04 2.02226L1324.01 2.28164ZM1335.5 2.28164L1336.46 2.54043L1336.8 1.28164H1335.5V2.28164ZM1328.11 29.8416L1327.15 29.5828L1326.81 30.8416H1328.11V29.8416ZM1357.08 29.8416L1358.04 30.1028L1358.38 28.8416H1357.08V29.8416ZM1354.69 38.6816V39.6816H1355.45L1355.65 38.9428L1354.69 38.6816ZM1315.19 38.941L1324.97 2.54102L1323.04 2.02226L1313.26 38.4223L1315.19 38.941ZM1324.01 3.28164L1335.5 3.28164V1.28164L1324.01 1.28164V3.28164ZM1334.53 2.02284L1327.15 29.5828L1329.08 30.1004L1336.46 2.54043L1334.53 2.02284ZM1328.11 30.8416L1357.08 30.8416V28.8416L1328.11 28.8416V30.8416ZM1356.11 29.5804L1353.72 38.4204L1355.65 38.9428L1358.04 30.1028L1356.11 29.5804ZM1354.69 37.6816L1314.23 37.6816V39.6816L1354.69 39.6816V37.6816ZM1362.42 38.6816L1361.45 38.4223L1361.12 39.6816H1362.42V38.6816ZM1372.2 2.28164V1.28164H1371.43L1371.23 2.02226L1372.2 2.28164ZM1383.69 2.28164L1384.65 2.54043L1384.99 1.28164H1383.69V2.28164ZM1376.3 29.8416L1375.34 29.5828L1375 30.8416H1376.3V29.8416ZM1405.27 29.8416L1406.23 30.1028L1406.58 28.8416H1405.27V29.8416ZM1402.88 38.6816V39.6816H1403.64L1403.84 38.9428L1402.88 38.6816ZM1363.39 38.941L1373.16 2.54102L1371.23 2.02226L1361.45 38.4223L1363.39 38.941ZM1372.2 3.28164H1383.69V1.28164H1372.2V3.28164ZM1382.72 2.02284L1375.34 29.5828L1377.27 30.1004L1384.65 2.54043L1382.72 2.02284ZM1376.3 30.8416H1405.27V28.8416H1376.3V30.8416ZM1404.3 29.5804L1401.91 38.4204L1403.84 38.9428L1406.23 30.1028L1404.3 29.5804ZM1402.88 37.6816H1362.42V39.6816H1402.88V37.6816ZM1410.4 27.6056L1409.44 27.3459L1409.1 28.6056H1410.4V27.6056ZM1412.8 18.7136V17.7136H1412.03L1411.83 18.4539L1412.8 18.7136ZM1440.2 18.7136L1441.17 18.9734L1441.5 17.7136H1440.2V18.7136ZM1437.81 27.6056V28.6056H1438.57L1438.77 27.8654L1437.81 27.6056ZM1411.37 27.8654L1413.76 18.9734L1411.83 18.4539L1409.44 27.3459L1411.37 27.8654ZM1412.8 19.7136H1440.2V17.7136H1412.8V19.7136ZM1439.23 18.4539L1436.84 27.3459L1438.77 27.8654L1441.17 18.9734L1439.23 18.4539ZM1437.81 26.6056H1410.4V28.6056H1437.81V26.6056ZM1446.55 14.9176L1447.43 15.4052L1447.43 15.4004L1446.55 14.9176ZM1453 7.89764L1452.43 7.07652L1452.43 7.07983L1453 7.89764ZM1494.65 4.82964L1494.19 5.7165L1494.19 5.71807L1494.65 4.82964ZM1501.26 14.2416L1501.45 15.2221L1502.31 15.0508L1502.26 14.1829L1501.26 14.2416ZM1489.35 16.6336L1488.35 16.7002L1488.43 17.8388L1489.55 17.6141L1489.35 16.6336ZM1485.92 12.0056L1485.48 12.9059L1485.49 12.9114L1485.92 12.0056ZM1464.81 12.1616L1465.16 13.0962L1465.17 13.0924L1464.81 12.1616ZM1458.36 16.5816L1457.56 15.9792L1457.56 15.9816L1458.36 16.5816ZM1459.71 28.4376L1459.18 29.2834L1459.18 29.2882L1459.19 29.2928L1459.71 28.4376ZM1480.61 28.9576L1480.25 28.0275L1480.24 28.0292L1480.61 28.9576ZM1486.65 24.1216L1486.84 23.1412L1486.17 23.006L1485.8 23.5856L1486.65 24.1216ZM1498.03 26.4096L1498.92 26.8736L1499.54 25.692L1498.23 25.4292L1498.03 26.4096ZM1492 33.6376L1491.39 32.843L1491.39 32.8471L1492 33.6376ZM1482.64 37.9536L1482.88 38.9243L1482.89 38.9222L1482.64 37.9536ZM1450.61 35.2496L1450.06 36.087L1450.07 36.089L1450.61 35.2496ZM1445.32 23.6016C1445.32 20.6487 1446.02 17.9224 1447.43 15.4052L1445.68 14.4301C1444.11 17.2516 1443.32 20.3146 1443.32 23.6016H1445.32ZM1447.43 15.4004C1448.84 12.8437 1450.88 10.6139 1453.58 8.71545L1452.43 7.07983C1449.51 9.13336 1447.25 11.5835 1445.68 14.4349L1447.43 15.4004ZM1453.57 8.71875C1456.31 6.81895 1459.63 5.31888 1463.56 4.23363L1463.03 2.30565C1458.92 3.43906 1455.38 5.02433 1452.43 7.07653L1453.57 8.71875ZM1463.56 4.23363C1467.48 3.15278 1471.95 2.60564 1476.97 2.60564V0.605638C1471.81 0.605638 1467.16 1.16782 1463.03 2.30565L1463.56 4.23363ZM1476.97 2.60564C1484.57 2.60564 1490.27 3.67476 1494.19 5.71649L1495.12 3.94279C1490.78 1.68585 1484.7 0.605638 1476.97 0.605638V2.60564ZM1494.19 5.71807C1498.09 7.73116 1500.04 10.5801 1500.26 14.3004L1502.26 14.1829C1501.99 9.65255 1499.54 6.22678 1495.11 3.94121L1494.19 5.71807ZM1501.06 13.2612L1489.15 15.6532L1489.55 17.6141L1501.45 15.2221L1501.06 13.2612ZM1490.35 16.5671C1490.18 14.0666 1488.77 12.2337 1486.34 11.0998L1485.49 12.9114C1487.37 13.7883 1488.24 15.0406 1488.35 16.7002L1490.35 16.5671ZM1486.35 11.1055C1484 9.96466 1480.5 9.44564 1475.99 9.44564V11.4456C1480.42 11.4456 1483.54 11.9666 1485.48 12.9058L1486.35 11.1055ZM1475.99 9.44564C1471.37 9.44564 1467.51 10.0254 1464.44 11.2309L1465.17 13.0924C1467.93 12.0099 1471.52 11.4456 1475.99 11.4456V9.44564ZM1464.45 11.2272C1461.42 12.3805 1459.09 13.9476 1457.56 15.9792L1459.16 17.184C1460.4 15.541 1462.37 14.1615 1465.16 13.0961L1464.45 11.2272ZM1457.56 15.9816C1456.09 17.9388 1455.33 20.0698 1455.33 22.3536H1457.33C1457.33 20.5468 1457.92 18.8298 1459.16 17.1816L1457.56 15.9816ZM1455.33 22.3536C1455.33 25.3363 1456.64 27.6814 1459.18 29.2834L1460.24 27.5918C1458.28 26.3512 1457.33 24.6403 1457.33 22.3536H1455.33ZM1459.19 29.2928C1461.72 30.8246 1465.55 31.5176 1470.53 31.5176V29.5176C1465.65 29.5176 1462.28 28.824 1460.23 27.5824L1459.19 29.2928ZM1470.53 31.5176C1474.72 31.5176 1478.23 30.9902 1480.99 29.8861L1480.24 28.0292C1477.8 29.0051 1474.58 29.5176 1470.53 29.5176V31.5176ZM1480.98 29.8878C1483.79 28.7779 1485.98 27.0372 1487.49 24.6576L1485.8 23.5856C1484.54 25.5741 1482.7 27.0574 1480.25 28.0275L1480.98 29.8878ZM1486.45 25.102L1497.84 27.39L1498.23 25.4292L1486.84 23.1412L1486.45 25.102ZM1497.15 25.9456C1495.69 28.7346 1493.77 31.029 1491.39 32.843L1492.61 34.4323C1495.23 32.4329 1497.33 29.9087 1498.92 26.8736L1497.15 25.9456ZM1491.39 32.8471C1489.06 34.652 1486.07 36.04 1482.39 36.9851L1482.89 38.9222C1486.77 37.9259 1490.02 36.4366 1492.61 34.4282L1491.39 32.8471ZM1482.4 36.983C1478.73 37.8936 1474.22 38.3576 1468.86 38.3576V40.3576C1474.32 40.3576 1479 39.8857 1482.88 38.9243L1482.4 36.983ZM1468.86 38.3576C1461.01 38.3576 1455.15 36.9998 1451.15 34.4103L1450.07 36.089C1454.53 38.9768 1460.83 40.3576 1468.86 40.3576V38.3576ZM1451.16 34.4123C1447.25 31.8591 1445.32 28.292 1445.32 23.6016H1443.32C1443.32 28.9647 1445.58 33.1629 1450.06 36.087L1451.16 34.4123ZM1515.79 38.6816L1514.82 38.4222L1514.48 39.6816H1515.79V38.6816ZM1519.53 24.7456L1520.5 25.0051L1520.62 24.5566L1520.35 24.1752L1519.53 24.7456ZM1503.93 2.28164V1.28164H1502.02L1503.11 2.85203L1503.93 2.28164ZM1517.55 2.28164L1518.38 1.71551L1518.08 1.28164H1517.55V2.28164ZM1527.02 16.0616L1526.19 16.6278L1526.82 17.5367L1527.66 16.8269L1527.02 16.0616ZM1543.4 2.28164V1.28164H1543.03L1542.75 1.51641L1543.4 2.28164ZM1558.43 2.28164L1559.07 3.04595L1561.16 1.28164H1558.43V2.28164ZM1530.81 25.5776L1530.17 24.8133L1529.93 25.0151L1529.85 25.3171L1530.81 25.5776ZM1527.28 38.6816V39.6816H1528.04L1528.24 38.9422L1527.28 38.6816ZM1516.75 38.9411L1520.5 25.0051L1518.56 24.4862L1514.82 38.4222L1516.75 38.9411ZM1520.35 24.1752L1504.75 1.71124L1503.11 2.85203L1518.71 25.316L1520.35 24.1752ZM1503.93 3.28164H1517.55V1.28164H1503.93V3.28164ZM1516.73 2.84777L1526.19 16.6278L1527.84 15.4955L1518.38 1.71551L1516.73 2.84777ZM1527.66 16.8269L1544.04 3.04686L1542.75 1.51641L1526.37 15.2964L1527.66 16.8269ZM1543.4 3.28164L1558.43 3.28164V1.28164L1543.4 1.28164V3.28164ZM1557.78 1.51732L1530.17 24.8133L1531.46 26.342L1559.07 3.04595L1557.78 1.51732ZM1529.85 25.3171L1526.31 38.4211L1528.24 38.9422L1531.78 25.8382L1529.85 25.3171ZM1527.28 37.6816H1515.79V39.6816H1527.28V37.6816ZM1556.75 14.9176L1557.62 15.4052L1557.62 15.4004L1556.75 14.9176ZM1563.2 7.89764L1562.63 7.07652L1562.62 7.07983L1563.2 7.89764ZM1604.85 4.82964L1604.39 5.7165L1604.39 5.71807L1604.85 4.82964ZM1611.45 14.2416L1611.65 15.2221L1612.5 15.0508L1612.45 14.1829L1611.45 14.2416ZM1599.55 16.6336L1598.55 16.7002L1598.62 17.8388L1599.74 17.6141L1599.55 16.6336ZM1596.11 12.0056L1595.68 12.9059L1595.69 12.9114L1596.11 12.0056ZM1575 12.1616L1575.36 13.0962L1575.37 13.0924L1575 12.1616ZM1568.55 16.5816L1567.75 15.9792L1567.75 15.9816L1568.55 16.5816ZM1569.91 28.4376L1569.37 29.2834L1569.38 29.2882L1569.39 29.2928L1569.91 28.4376ZM1590.81 28.9576L1590.44 28.0275L1590.44 28.0292L1590.81 28.9576ZM1596.84 24.1216L1597.04 23.1412L1596.36 23.006L1596 23.5856L1596.84 24.1216ZM1608.23 26.4096L1609.11 26.8736L1609.73 25.692L1608.43 25.4292L1608.23 26.4096ZM1602.2 33.6376L1601.59 32.843L1601.58 32.8471L1602.2 33.6376ZM1592.84 37.9536L1593.08 38.9243L1593.09 38.9222L1592.84 37.9536ZM1560.81 35.2496L1560.26 36.087L1560.26 36.089L1560.81 35.2496ZM1555.51 23.6016C1555.51 20.6487 1556.22 17.9224 1557.62 15.4052L1555.88 14.4301C1554.3 17.2516 1553.51 20.3146 1553.51 23.6016H1555.51ZM1557.62 15.4004C1559.03 12.8437 1561.07 10.6139 1563.77 8.71545L1562.62 7.07983C1559.7 9.13336 1557.45 11.5835 1555.87 14.4349L1557.62 15.4004ZM1563.77 8.71875C1566.5 6.81895 1569.82 5.31888 1573.76 4.23363L1573.23 2.30565C1569.12 3.43906 1565.58 5.02433 1562.63 7.07653L1563.77 8.71875ZM1573.76 4.23363C1577.68 3.15278 1582.14 2.60564 1587.17 2.60564V0.605638C1582 0.605638 1577.35 1.16782 1573.23 2.30565L1573.76 4.23363ZM1587.17 2.60564C1594.76 2.60564 1600.47 3.67476 1604.39 5.71649L1605.31 3.94279C1600.98 1.68585 1594.9 0.605638 1587.17 0.605638V2.60564ZM1604.39 5.71807C1608.29 7.73116 1610.24 10.5801 1610.45 14.3004L1612.45 14.1829C1612.18 9.65255 1609.73 6.22678 1605.31 3.94121L1604.39 5.71807ZM1611.26 13.2612L1599.35 15.6532L1599.74 17.6141L1611.65 15.2221L1611.26 13.2612ZM1600.54 16.5671C1600.38 14.0666 1598.96 12.2337 1596.54 11.0998L1595.69 12.9114C1597.56 13.7883 1598.44 15.0406 1598.55 16.7002L1600.54 16.5671ZM1596.55 11.1055C1594.19 9.96466 1590.69 9.44564 1586.18 9.44564V11.4456C1590.61 11.4456 1593.74 11.9666 1595.68 12.9058L1596.55 11.1055ZM1586.18 9.44564C1581.57 9.44564 1577.7 10.0254 1574.64 11.2309L1575.37 13.0924C1578.12 12.0099 1581.71 11.4456 1586.18 11.4456V9.44564ZM1574.65 11.2272C1571.62 12.3805 1569.29 13.9476 1567.75 15.9792L1569.35 17.184C1570.59 15.541 1572.56 14.1615 1575.36 13.0961L1574.65 11.2272ZM1567.75 15.9816C1566.29 17.9388 1565.53 20.0698 1565.53 22.3536H1567.53C1567.53 20.5468 1568.12 18.8298 1569.35 17.1816L1567.75 15.9816ZM1565.53 22.3536C1565.53 25.3363 1566.83 27.6814 1569.37 29.2834L1570.44 27.5918C1568.47 26.3512 1567.53 24.6403 1567.53 22.3536H1565.53ZM1569.39 29.2928C1571.91 30.8246 1575.75 31.5176 1580.72 31.5176V29.5176C1575.85 29.5176 1572.47 28.824 1570.42 27.5824L1569.39 29.2928ZM1580.72 31.5176C1584.92 31.5176 1588.42 30.9902 1591.18 29.8861L1590.44 28.0292C1588 29.0051 1584.77 29.5176 1580.72 29.5176V31.5176ZM1591.18 29.8878C1593.99 28.7779 1596.17 27.0372 1597.69 24.6576L1596 23.5856C1594.73 25.5741 1592.9 27.0574 1590.44 28.0275L1591.18 29.8878ZM1596.64 25.102L1608.03 27.39L1608.43 25.4292L1597.04 23.1412L1596.64 25.102ZM1607.34 25.9456C1605.88 28.7346 1603.96 31.029 1601.59 32.843L1602.8 34.4323C1605.42 32.4329 1607.53 29.9087 1609.11 26.8736L1607.34 25.9456ZM1601.58 32.8471C1599.25 34.652 1596.27 36.04 1592.59 36.9851L1593.09 38.9222C1596.96 37.9259 1600.22 36.4366 1602.81 34.4282L1601.58 32.8471ZM1592.6 36.983C1588.92 37.8936 1584.41 38.3576 1579.06 38.3576V40.3576C1584.52 40.3576 1589.2 39.8857 1593.08 38.9243L1592.6 36.983ZM1579.06 38.3576C1571.21 38.3576 1565.35 36.9998 1561.35 34.4103L1560.26 36.089C1564.72 38.9768 1571.03 40.3576 1579.06 40.3576V38.3576ZM1561.35 34.4123C1557.44 31.8591 1555.51 28.292 1555.51 23.6016H1553.51C1553.51 28.9647 1555.78 33.1629 1560.26 36.087L1561.35 34.4123ZM1612.82 38.6816L1611.86 38.4223L1611.52 39.6816H1612.82V38.6816ZM1622.6 2.28164V1.28164H1621.83L1621.63 2.02226L1622.6 2.28164ZM1634.09 2.28164L1635.06 2.54043L1635.39 1.28164H1634.09V2.28164ZM1626.71 29.8416L1625.74 29.5828L1625.4 30.8416H1626.71V29.8416ZM1655.67 29.8416L1656.64 30.1028L1656.98 28.8416H1655.67V29.8416ZM1653.28 38.6816V39.6816H1654.04L1654.24 38.9428L1653.28 38.6816ZM1613.79 38.941L1623.56 2.54102L1621.63 2.02226L1611.86 38.4223L1613.79 38.941ZM1622.6 3.28164H1634.09V1.28164H1622.6V3.28164ZM1633.13 2.02284L1625.74 29.5828L1627.67 30.1004L1635.06 2.54043L1633.13 2.02284ZM1626.71 30.8416H1655.67V28.8416H1626.71V30.8416ZM1654.71 29.5804L1652.31 38.4204L1654.24 38.9428L1656.64 30.1028L1654.71 29.5804ZM1653.28 37.6816H1612.82V39.6816H1653.28V37.6816ZM1661.01 38.6816L1660.05 38.4223L1659.71 39.6816H1661.01V38.6816ZM1670.79 2.28164V1.28164H1670.02L1669.82 2.02226L1670.79 2.28164ZM1716.6 2.28164L1717.57 2.54007L1717.91 1.28164H1716.6V2.28164ZM1714.42 10.4456V11.4456H1715.19L1715.38 10.7041L1714.42 10.4456ZM1679.73 10.4456V9.44564H1678.97L1678.77 10.1863L1679.73 10.4456ZM1678.23 16.0616L1677.26 15.8023L1676.92 17.0616H1678.23V16.0616ZM1709.32 16.0616L1710.29 16.3216L1710.63 15.0616H1709.32V16.0616ZM1707.14 24.1736V25.1736H1707.9L1708.1 24.4336L1707.14 24.1736ZM1676.09 24.1736V23.1736H1675.33L1675.13 23.9125L1676.09 24.1736ZM1674.38 30.5176L1673.41 30.2565L1673.07 31.5176H1674.38V30.5176ZM1709.43 30.5176L1710.39 30.7761L1710.73 29.5176H1709.43V30.5176ZM1707.24 38.6816V39.6816H1708.01L1708.21 38.9401L1707.24 38.6816ZM1661.98 38.941L1671.76 2.54102L1669.82 2.02226L1660.05 38.4223L1661.98 38.941ZM1670.79 3.28164L1716.6 3.28164V1.28164L1670.79 1.28164V3.28164ZM1715.64 2.02321L1713.45 10.1872L1715.38 10.7041L1717.57 2.54007L1715.64 2.02321ZM1714.42 9.44564L1679.73 9.44564V11.4456L1714.42 11.4456V9.44564ZM1678.77 10.1863L1677.26 15.8023L1679.19 16.321L1680.7 10.705L1678.77 10.1863ZM1678.23 17.0616L1709.32 17.0616V15.0616L1678.23 15.0616V17.0616ZM1708.36 15.8017L1706.17 23.9137L1708.1 24.4336L1710.29 16.3216L1708.36 15.8017ZM1707.14 23.1736H1676.09V25.1736H1707.14V23.1736ZM1675.13 23.9125L1673.41 30.2565L1675.34 30.7787L1677.06 24.4347L1675.13 23.9125ZM1674.38 31.5176H1709.43V29.5176H1674.38V31.5176ZM1708.46 30.2592L1706.28 38.4232L1708.21 38.9401L1710.39 30.7761L1708.46 30.2592ZM1707.24 37.6816H1661.01V39.6816H1707.24V37.6816ZM1731.65 38.6816L1730.69 38.4223L1730.35 39.6816H1731.65V38.6816ZM1741.43 2.28164V1.28164H1740.66L1740.46 2.02226L1741.43 2.28164ZM1787.24 2.28164L1788.21 2.54007L1788.54 1.28164H1787.24V2.28164ZM1785.06 10.4456V11.4456H1785.82L1786.02 10.7041L1785.06 10.4456ZM1750.37 10.4456V9.44564H1749.6L1749.41 10.1863L1750.37 10.4456ZM1748.86 16.0616L1747.9 15.8023L1747.56 17.0616H1748.86V16.0616ZM1779.96 16.0616L1780.92 16.3216L1781.26 15.0616H1779.96V16.0616ZM1777.78 24.1736V25.1736H1778.54L1778.74 24.4336L1777.78 24.1736ZM1746.73 24.1736V23.1736H1745.97L1745.77 23.9125L1746.73 24.1736ZM1745.02 30.5176L1744.05 30.2565L1743.71 31.5176H1745.02V30.5176ZM1780.06 30.5176L1781.03 30.7761L1781.37 29.5176H1780.06V30.5176ZM1777.88 38.6816V39.6816H1778.65L1778.85 38.9401L1777.88 38.6816ZM1732.62 38.941L1742.39 2.54102L1740.46 2.02226L1730.69 38.4223L1732.62 38.941ZM1741.43 3.28164L1787.24 3.28164V1.28164L1741.43 1.28164V3.28164ZM1786.27 2.02321L1784.09 10.1872L1786.02 10.7041L1788.21 2.54007L1786.27 2.02321ZM1785.06 9.44564L1750.37 9.44564V11.4456L1785.06 11.4456V9.44564ZM1749.41 10.1863L1747.9 15.8023L1749.83 16.321L1751.34 10.705L1749.41 10.1863ZM1748.86 17.0616L1779.96 17.0616V15.0616L1748.86 15.0616V17.0616ZM1778.99 15.8017L1776.81 23.9137L1778.74 24.4336L1780.92 16.3216L1778.99 15.8017ZM1777.78 23.1736H1746.73V25.1736H1777.78V23.1736ZM1745.77 23.9125L1744.05 30.2565L1745.98 30.7787L1747.7 24.4347L1745.77 23.9125ZM1745.02 31.5176H1780.06V29.5176H1745.02V31.5176ZM1779.1 30.2592L1776.91 38.4232L1778.85 38.9401L1781.03 30.7761L1779.1 30.2592ZM1777.88 37.6816L1731.65 37.6816V39.6816L1777.88 39.6816V37.6816ZM1802.78 2.28164L1803.72 1.94579L1803.48 1.28164H1802.78V2.28164ZM1811.83 27.6576L1810.88 27.9935L1811.45 29.5757L1812.57 28.3256L1811.83 27.6576ZM1834.6 2.28164V1.28164H1834.16L1833.86 1.61369L1834.6 2.28164ZM1848.12 2.28164L1848.87 2.94943L1850.36 1.28164H1848.12V2.28164ZM1815.47 38.6816V39.6816H1815.91L1816.21 39.3494L1815.47 38.6816ZM1803.66 38.6816L1802.72 39.0215L1802.96 39.6816H1803.66V38.6816ZM1790.51 2.28164V1.28164H1789.08L1789.57 2.62155L1790.51 2.28164ZM1801.84 2.61749L1810.88 27.9935L1812.77 27.3218L1803.72 1.94579L1801.84 2.61749ZM1812.57 28.3256L1835.35 2.94959L1833.86 1.61369L1811.08 26.9897L1812.57 28.3256ZM1834.6 3.28164L1848.12 3.28164V1.28164L1834.6 1.28164V3.28164ZM1847.38 1.61385L1814.72 38.0139L1816.21 39.3494L1848.87 2.94943L1847.38 1.61385ZM1815.47 37.6816H1803.66V39.6816H1815.47V37.6816ZM1804.6 38.3417L1791.45 1.94173L1789.57 2.62155L1802.72 39.0215L1804.6 38.3417ZM1790.51 3.28164H1802.78V1.28164H1790.51V3.28164ZM1844.03 38.6816L1843.06 38.4223L1842.73 39.6816H1844.03V38.6816ZM1853.81 2.28164V1.28164H1853.04L1852.84 2.02226L1853.81 2.28164ZM1899.62 2.28164L1900.58 2.54007L1900.92 1.28164H1899.62V2.28164ZM1897.43 10.4456V11.4456H1898.2L1898.4 10.7041L1897.43 10.4456ZM1862.75 10.4456V9.44564H1861.98L1861.78 10.1863L1862.75 10.4456ZM1861.24 16.0616L1860.28 15.8023L1859.94 17.0616H1861.24V16.0616ZM1892.34 16.0616L1893.3 16.3216L1893.64 15.0616H1892.34V16.0616ZM1890.15 24.1736V25.1736H1890.92L1891.12 24.4336L1890.15 24.1736ZM1859.11 24.1736V23.1736H1858.34L1858.14 23.9125L1859.11 24.1736ZM1857.39 30.5176L1856.43 30.2565L1856.09 31.5176H1857.39V30.5176ZM1892.44 30.5176L1893.41 30.7761L1893.74 29.5176H1892.44V30.5176ZM1890.26 38.6816V39.6816H1891.03L1891.22 38.9401L1890.26 38.6816ZM1845 38.941L1854.77 2.54102L1852.84 2.02226L1843.06 38.4223L1845 38.941ZM1853.81 3.28164L1899.62 3.28164V1.28164L1853.81 1.28164V3.28164ZM1898.65 2.02321L1896.47 10.1872L1898.4 10.7041L1900.58 2.54007L1898.65 2.02321ZM1897.43 9.44564L1862.75 9.44564V11.4456L1897.43 11.4456V9.44564ZM1861.78 10.1863L1860.28 15.8023L1862.21 16.321L1863.72 10.705L1861.78 10.1863ZM1861.24 17.0616L1892.34 17.0616V15.0616L1861.24 15.0616V17.0616ZM1891.37 15.8017L1889.19 23.9137L1891.12 24.4336L1893.3 16.3216L1891.37 15.8017ZM1890.15 23.1736L1859.11 23.1736V25.1736L1890.15 25.1736V23.1736ZM1858.14 23.9125L1856.43 30.2565L1858.36 30.7787L1860.08 24.4347L1858.14 23.9125ZM1857.39 31.5176L1892.44 31.5176V29.5176L1857.39 29.5176V31.5176ZM1891.48 30.2592L1889.29 38.4232L1891.22 38.9401L1893.41 30.7761L1891.48 30.2592ZM1890.26 37.6816L1844.03 37.6816V39.6816L1890.26 39.6816V37.6816ZM1898.57 38.6816L1897.6 38.4223L1897.27 39.6816H1898.57V38.6816ZM1908.35 2.28164V1.28164L1907.58 1.28164L1907.38 2.02226L1908.35 2.28164ZM1919.47 2.28164L1920.22 1.61605L1919.92 1.28164H1919.47V2.28164ZM1942.2 27.7616L1941.45 28.4272L1942.68 29.8105L1943.16 28.0199L1942.2 27.7616ZM1949.01 2.28164V1.28164H1948.24L1948.04 2.02336L1949.01 2.28164ZM1959.83 2.28164L1960.79 2.53973L1961.13 1.28164H1959.83V2.28164ZM1950.1 38.6816V39.6816H1950.87L1951.07 38.9397L1950.1 38.6816ZM1938.97 38.6816L1938.23 39.3472L1938.52 39.6816H1938.97V38.6816ZM1916.25 13.2016L1917 12.536L1915.76 11.1559L1915.28 12.9415L1916.25 13.2016ZM1909.39 38.6816V39.6816H1910.15L1910.35 38.9418L1909.39 38.6816ZM1899.53 38.941L1909.31 2.54102L1907.38 2.02226L1897.6 38.4223L1899.53 38.941ZM1908.35 3.28164H1919.47V1.28164H1908.35V3.28164ZM1918.73 2.94723L1941.45 28.4272L1942.94 27.096L1920.22 1.61605L1918.73 2.94723ZM1943.16 28.0199L1949.98 2.53991L1948.04 2.02336L1941.23 27.5034L1943.16 28.0199ZM1949.01 3.28164H1959.83V1.28164H1949.01V3.28164ZM1958.86 2.02355L1949.13 38.4235L1951.07 38.9397L1960.79 2.53973L1958.86 2.02355ZM1950.1 37.6816H1938.97V39.6816H1950.1V37.6816ZM1939.72 38.016L1917 12.536L1915.5 13.8672L1938.23 39.3472L1939.72 38.016ZM1915.28 12.9415L1908.42 38.4215L1910.35 38.9418L1917.21 13.4618L1915.28 12.9415ZM1909.39 37.6816H1898.57V39.6816H1909.39V37.6816ZM1976.52 38.6816L1975.56 38.4228L1975.22 39.6816H1976.52V38.6816ZM1983.91 11.1216L1984.87 11.3804L1985.21 10.1216H1983.91V11.1216ZM1964.46 11.1216L1963.49 10.8604L1963.15 12.1216H1964.46V11.1216ZM1966.85 2.28164V1.28164H1966.09L1965.89 2.02044L1966.85 2.28164ZM2017.24 2.28164L2018.2 2.54283L2018.55 1.28164H2017.24V2.28164ZM2014.85 11.1216V12.1216H2015.61L2015.81 11.3828L2014.85 11.1216ZM1995.4 11.1216V10.1216H1994.63L1994.43 10.8628L1995.4 11.1216ZM1988.02 38.6816V39.6816L1988.78 39.6816L1988.98 38.9404L1988.02 38.6816ZM1977.49 38.9404L1984.87 11.3804L1982.94 10.8628L1975.56 38.4228L1977.49 38.9404ZM1983.91 10.1216H1964.46V12.1216H1983.91V10.1216ZM1965.42 11.3828L1967.82 2.54283L1965.89 2.02044L1963.49 10.8604L1965.42 11.3828ZM1966.85 3.28164L2017.24 3.28164V1.28164L1966.85 1.28164V3.28164ZM2016.27 2.02044L2013.88 10.8604L2015.81 11.3828L2018.2 2.54283L2016.27 2.02044ZM2014.85 10.1216H1995.4V12.1216H2014.85V10.1216ZM1994.43 10.8628L1987.05 38.4228L1988.98 38.9404L1996.37 11.3804L1994.43 10.8628ZM1988.02 37.6816H1976.52V39.6816H1988.02V37.6816ZM2073.55 38.6816L2072.62 39.0376L2072.86 39.6816H2073.55V38.6816ZM2071.06 32.1296L2071.99 31.7736L2071.75 31.1296H2071.06V32.1296ZM2044.59 32.1296V31.1296H2044.15L2043.85 31.4523L2044.59 32.1296ZM2038.56 38.6816V39.6816H2038.99L2039.29 39.359L2038.56 38.6816ZM2025.09 38.6816L2024.36 37.9978L2022.78 39.6816H2025.09V38.6816ZM2059.2 2.28164V1.28164H2058.77L2058.47 1.59784L2059.2 2.28164ZM2071 2.28164L2071.93 1.9091L2071.68 1.28164H2071V2.28164ZM2085.62 38.6816V39.6816H2087.1L2086.54 38.3091L2085.62 38.6816ZM2052.18 23.9136L2051.45 23.2358L2049.9 24.9136H2052.18V23.9136ZM2067.88 23.9136V24.9136H2069.34L2068.82 23.5541L2067.88 23.9136ZM2063.26 11.9016L2064.19 11.5421L2063.61 10.0415L2062.52 11.2238L2063.26 11.9016ZM2074.49 38.3256L2071.99 31.7736L2070.12 32.4856L2072.62 39.0376L2074.49 38.3256ZM2071.06 31.1296H2044.59V33.1296H2071.06V31.1296ZM2043.85 31.4523L2037.82 38.0043L2039.29 39.359L2045.32 32.807L2043.85 31.4523ZM2038.56 37.6816H2025.09V39.6816H2038.56V37.6816ZM2025.82 39.3654L2059.93 2.96544L2058.47 1.59784L2024.36 37.9978L2025.82 39.3654ZM2059.2 3.28164L2071 3.28164V1.28164L2059.2 1.28164V3.28164ZM2070.08 2.65417L2084.69 39.0542L2086.54 38.3091L2071.93 1.9091L2070.08 2.65417ZM2085.62 37.6816H2073.55V39.6816H2085.62V37.6816ZM2052.18 24.9136H2067.88V22.9136H2052.18V24.9136ZM2068.82 23.5541L2064.19 11.5421L2062.32 12.2612L2066.95 24.2732L2068.82 23.5541ZM2062.52 11.2238L2051.45 23.2358L2052.92 24.5915L2063.99 12.5795L2062.52 11.2238ZM2092.29 14.8656L2091.42 14.3781L2091.42 14.3781L2092.29 14.8656ZM2098.74 7.89764L2098.17 7.07652L2098.16 7.07983L2098.74 7.89764ZM2140.39 4.72564L2139.94 5.61856L2139.94 5.61856L2140.39 4.72564ZM2146.99 13.8776L2147.19 14.859L2148.05 14.6895L2147.99 13.8088L2146.99 13.8776ZM2135.03 16.2176L2134.04 16.2889L2134.12 17.416L2135.23 17.199L2135.03 16.2176ZM2131.6 11.9016L2131.18 12.8105L2131.19 12.8146L2131.2 12.8185L2131.6 11.9016ZM2110.49 12.1616L2110.85 13.0962L2110.85 13.0924L2110.49 12.1616ZM2104.04 16.5816L2103.24 15.9792L2103.24 15.9816L2104.04 16.5816ZM2105.55 28.4376L2105.03 29.294L2105.04 29.2985L2105.05 29.3028L2105.55 28.4376ZM2126.87 29.3736L2127.13 30.3387L2127.13 30.3387L2126.87 29.3736ZM2133.53 25.7336L2134.24 26.4333L2135.9 24.7336H2133.53V25.7336ZM2117.3 25.7336L2116.34 25.4756L2116 26.7336L2117.3 26.7336V25.7336ZM2119.33 18.1416V17.1416H2118.56L2118.36 17.8836L2119.33 18.1416ZM2147.72 18.1416L2148.69 18.4008L2149.03 17.1416L2147.72 17.1416V18.1416ZM2142.21 38.6816V39.6816H2142.98L2143.18 38.9408L2142.21 38.6816ZM2133.37 38.6816L2132.37 38.5813L2132.26 39.6816H2133.37V38.6816ZM2133.99 32.4936L2134.99 32.594L2135.24 30.0929L2133.34 31.7373L2133.99 32.4936ZM2124.79 37.5896L2124.48 36.64L2124.47 36.641L2124.79 37.5896ZM2095.62 35.2496L2095.02 36.0506L2095.03 36.0568L2095.62 35.2496ZM2091.05 23.5496C2091.05 20.5967 2091.76 17.8704 2093.16 15.3532L2091.42 14.3781C2089.84 17.1996 2089.05 20.2626 2089.05 23.5496H2091.05ZM2093.16 15.3532C2094.57 12.8302 2096.61 10.6158 2099.31 8.71545L2098.16 7.07983C2095.25 9.13149 2092.99 11.5624 2091.42 14.3781L2093.16 15.3532ZM2099.31 8.71875C2102.04 6.81895 2105.37 5.31888 2109.3 4.23363L2108.77 2.30565C2104.66 3.43906 2101.12 5.02433 2098.17 7.07653L2099.31 8.71875ZM2109.3 4.23363C2113.22 3.15278 2117.68 2.60564 2122.71 2.60564V0.605638C2117.54 0.605638 2112.89 1.16782 2108.77 2.30565L2109.3 4.23363ZM2122.71 2.60564C2130.3 2.60564 2136.02 3.64075 2139.94 5.61856L2140.84 3.83272C2136.51 1.65052 2130.44 0.605638 2122.71 0.605638V2.60564ZM2139.94 5.61856C2143.8 7.56735 2145.75 10.3344 2146 13.9464L2147.99 13.8088C2147.69 9.37818 2145.23 6.04393 2140.84 3.83272L2139.94 5.61856ZM2146.8 12.8962L2134.84 15.2362L2135.23 17.199L2147.19 14.859L2146.8 12.8962ZM2136.03 16.1464C2135.86 13.7507 2134.41 12.0329 2132 10.9848L2131.2 12.8185C2133.09 13.6424 2133.93 14.8019 2134.04 16.2889L2136.03 16.1464ZM2132.02 10.9928C2129.7 9.92878 2126.21 9.44564 2121.67 9.44564V11.4456C2126.14 11.4456 2129.27 11.9332 2131.18 12.8105L2132.02 10.9928ZM2121.67 9.44564C2117.05 9.44564 2113.19 10.0254 2110.12 11.2309L2110.85 13.0924C2113.61 12.0099 2117.2 11.4456 2121.67 11.4456V9.44564ZM2110.13 11.2272C2107.11 12.3805 2104.78 13.9476 2103.24 15.9792L2104.84 17.184C2106.08 15.541 2108.05 14.1615 2110.85 13.0961L2110.13 11.2272ZM2103.24 15.9816C2101.77 17.9388 2101.01 20.0698 2101.01 22.3536H2103.01C2103.01 20.5468 2103.61 18.8298 2104.84 17.1816L2103.24 15.9816ZM2101.01 22.3536C2101.01 25.3575 2102.39 27.7016 2105.03 29.294L2106.07 27.5813C2103.99 26.331 2103.01 24.6191 2103.01 22.3536H2101.01ZM2105.05 29.3028C2107.67 30.8226 2111.54 31.5176 2116.52 31.5176V29.5176C2111.66 29.5176 2108.21 28.826 2106.05 27.5725L2105.05 29.3028ZM2116.52 31.5176C2120.67 31.5176 2124.21 31.1318 2127.13 30.3387L2126.61 28.4086C2123.91 29.1408 2120.56 29.5176 2116.52 29.5176V31.5176ZM2127.13 30.3387C2130.07 29.5409 2132.46 28.2525 2134.24 26.4333L2132.81 25.034C2131.33 26.5428 2129.29 27.6811 2126.61 28.4086L2127.13 30.3387ZM2133.53 24.7336H2117.3V26.7336H2133.53V24.7336ZM2118.27 25.9917L2120.3 18.3997L2118.36 17.8836L2116.34 25.4756L2118.27 25.9917ZM2119.33 19.1416H2147.72V17.1416H2119.33V19.1416ZM2146.76 17.8825L2141.24 38.4225L2143.18 38.9408L2148.69 18.4008L2146.76 17.8825ZM2142.21 37.6816H2133.37V39.6816H2142.21V37.6816ZM2134.36 38.782L2134.99 32.594L2133 32.3933L2132.37 38.5813L2134.36 38.782ZM2133.34 31.7373C2130.88 33.8608 2127.93 35.4982 2124.48 36.64L2125.1 38.5392C2128.79 37.3237 2131.97 35.5638 2134.65 33.25L2133.34 31.7373ZM2124.47 36.641C2121.05 37.7806 2117.23 38.3576 2112.99 38.3576V40.3576C2117.41 40.3576 2121.45 39.756 2125.11 38.5383L2124.47 36.641ZM2112.99 38.3576C2105.23 38.3576 2099.7 36.9956 2096.21 34.4425L2095.03 36.0568C2099.02 38.981 2105.07 40.3576 2112.99 40.3576V38.3576ZM2096.22 34.4487C2092.78 31.8821 2091.05 28.2922 2091.05 23.5496H2089.05C2089.05 28.8604 2091.03 33.0705 2095.02 36.0505L2096.22 34.4487ZM2151.82 38.6816L2150.85 38.4223L2150.51 39.6816H2151.82V38.6816ZM2161.59 2.28164V1.28164H2160.82L2160.63 2.02226L2161.59 2.28164ZM2207.4 2.28164L2208.37 2.54007L2208.71 1.28164H2207.4V2.28164ZM2205.22 10.4456V11.4456H2205.99L2206.19 10.7041L2205.22 10.4456ZM2170.54 10.4456V9.44564H2169.77L2169.57 10.1863L2170.54 10.4456ZM2169.03 16.0616L2168.06 15.8023L2167.72 17.0616H2169.03V16.0616ZM2200.12 16.0616L2201.09 16.3216L2201.43 15.0616H2200.12V16.0616ZM2197.94 24.1736V25.1736H2198.71L2198.9 24.4336L2197.94 24.1736ZM2166.9 24.1736V23.1736H2166.13L2165.93 23.9125L2166.9 24.1736ZM2165.18 30.5176L2164.21 30.2565L2163.87 31.5176H2165.18V30.5176ZM2200.23 30.5176L2201.19 30.7761L2201.53 29.5176H2200.23V30.5176ZM2198.04 38.6816V39.6816H2198.81L2199.01 38.9401L2198.04 38.6816ZM2152.78 38.941L2162.56 2.54102L2160.63 2.02226L2150.85 38.4223L2152.78 38.941ZM2161.59 3.28164L2207.4 3.28164V1.28164L2161.59 1.28164V3.28164ZM2206.44 2.02321L2204.25 10.1872L2206.19 10.7041L2208.37 2.54007L2206.44 2.02321ZM2205.22 9.44564H2170.54V11.4456H2205.22V9.44564ZM2169.57 10.1863L2168.06 15.8023L2169.99 16.321L2171.5 10.705L2169.57 10.1863ZM2169.03 17.0616H2200.12V15.0616H2169.03V17.0616ZM2199.16 15.8017L2196.97 23.9137L2198.9 24.4336L2201.09 16.3216L2199.16 15.8017ZM2197.94 23.1736H2166.9V25.1736H2197.94V23.1736ZM2165.93 23.9125L2164.21 30.2565L2166.14 30.7787L2167.86 24.4347L2165.93 23.9125ZM2165.18 31.5176H2200.23V29.5176H2165.18V31.5176ZM2199.26 30.2592L2197.08 38.4232L2199.01 38.9401L2201.19 30.7761L2199.26 30.2592ZM2198.04 37.6816H2151.82V39.6816H2198.04V37.6816ZM2206.35 38.6816L2205.39 38.4223L2205.05 39.6816H2206.35V38.6816ZM2216.13 2.28164V1.28164H2215.36L2215.16 2.02226L2216.13 2.28164ZM2227.26 2.28164L2228 1.61605L2227.71 1.28164H2227.26V2.28164ZM2249.98 27.7616L2249.24 28.4272L2250.47 29.8105L2250.95 28.0199L2249.98 27.7616ZM2256.79 2.28164V1.28164H2256.03L2255.83 2.02336L2256.79 2.28164ZM2267.61 2.28164L2268.58 2.53973L2268.91 1.28164H2267.61V2.28164ZM2257.89 38.6816V39.6816H2258.65L2258.85 38.9397L2257.89 38.6816ZM2246.76 38.6816L2246.01 39.3472L2246.31 39.6816H2246.76V38.6816ZM2224.03 13.2016L2224.78 12.536L2223.55 11.1559L2223.07 12.9415L2224.03 13.2016ZM2217.17 38.6816V39.6816H2217.94L2218.14 38.9418L2217.17 38.6816ZM2207.32 38.941L2217.1 2.54102L2215.16 2.02226L2205.39 38.4223L2207.32 38.941ZM2216.13 3.28164H2227.26V1.28164H2216.13V3.28164ZM2226.51 2.94723L2249.24 28.4272L2250.73 27.096L2228 1.61605L2226.51 2.94723ZM2250.95 28.0199L2257.76 2.53991L2255.83 2.02336L2249.02 27.5034L2250.95 28.0199ZM2256.79 3.28164L2267.61 3.28164V1.28164L2256.79 1.28164V3.28164ZM2266.64 2.02355L2256.92 38.4235L2258.85 38.9397L2268.58 2.53973L2266.64 2.02355ZM2257.89 37.6816H2246.76V39.6816H2257.89V37.6816ZM2247.5 38.016L2224.78 12.536L2223.29 13.8672L2246.01 39.3472L2247.5 38.016ZM2223.07 12.9415L2216.2 38.4215L2218.14 38.9418L2225 13.4618L2223.07 12.9415ZM2217.17 37.6816H2206.35V39.6816H2217.17V37.6816ZM2272.76 14.9176L2273.64 15.4052L2273.64 15.4004L2272.76 14.9176ZM2279.21 7.89764L2278.64 7.07652L2278.64 7.07983L2279.21 7.89764ZM2320.86 4.82964L2320.4 5.7165L2320.41 5.71807L2320.86 4.82964ZM2327.47 14.2416L2327.67 15.2221L2328.52 15.0508L2328.47 14.1829L2327.47 14.2416ZM2315.56 16.6336L2314.56 16.7002L2314.64 17.8388L2315.76 17.6141L2315.56 16.6336ZM2312.13 12.0056L2311.69 12.9059L2311.71 12.9114L2312.13 12.0056ZM2291.02 12.1616L2291.37 13.0962L2291.38 13.0924L2291.02 12.1616ZM2284.57 16.5816L2283.77 15.9792L2283.77 15.9816L2284.57 16.5816ZM2285.92 28.4376L2285.39 29.2834L2285.39 29.2882L2285.4 29.2928L2285.92 28.4376ZM2306.82 28.9576L2306.46 28.0275L2306.45 28.0292L2306.82 28.9576ZM2312.86 24.1216L2313.05 23.1412L2312.38 23.006L2312.01 23.5856L2312.86 24.1216ZM2324.24 26.4096L2325.13 26.8736L2325.75 25.692L2324.44 25.4292L2324.24 26.4096ZM2318.21 33.6376L2317.61 32.843L2317.6 32.8471L2318.21 33.6376ZM2308.85 37.9536L2309.09 38.9243L2309.1 38.9222L2308.85 37.9536ZM2276.82 35.2496L2276.27 36.087L2276.28 36.089L2276.82 35.2496ZM2271.53 23.6016C2271.53 20.6487 2272.23 17.9224 2273.64 15.4052L2271.89 14.4301C2270.32 17.2516 2269.53 20.3146 2269.53 23.6016H2271.53ZM2273.64 15.4004C2275.05 12.8437 2277.09 10.6139 2279.79 8.71545L2278.64 7.07983C2275.72 9.13336 2273.46 11.5835 2271.89 14.4349L2273.64 15.4004ZM2279.78 8.71875C2282.52 6.81895 2285.84 5.31888 2289.77 4.23363L2289.24 2.30565C2285.13 3.43906 2281.59 5.02433 2278.64 7.07653L2279.78 8.71875ZM2289.77 4.23363C2293.69 3.15278 2298.16 2.60564 2303.18 2.60564V0.605638C2298.02 0.605638 2293.37 1.16782 2289.24 2.30565L2289.77 4.23363ZM2303.18 2.60564C2310.78 2.60564 2316.48 3.67476 2320.4 5.71649L2321.33 3.94279C2316.99 1.68585 2310.91 0.605638 2303.18 0.605638V2.60564ZM2320.41 5.71807C2324.3 7.73116 2326.25 10.5801 2326.47 14.3004L2328.47 14.1829C2328.2 9.65255 2325.75 6.22678 2321.32 3.94121L2320.41 5.71807ZM2327.27 13.2612L2315.36 15.6532L2315.76 17.6141L2327.67 15.2221L2327.27 13.2612ZM2316.56 16.5671C2316.39 14.0666 2314.98 12.2337 2312.55 11.0998L2311.71 12.9114C2313.58 13.7883 2314.45 15.0406 2314.56 16.7002L2316.56 16.5671ZM2312.56 11.1055C2310.21 9.96466 2306.71 9.44564 2302.2 9.44564V11.4456C2306.63 11.4456 2309.75 11.9666 2311.69 12.9058L2312.56 11.1055ZM2302.2 9.44564C2297.58 9.44564 2293.72 10.0254 2290.65 11.2309L2291.38 13.0924C2294.14 12.0099 2297.73 11.4456 2302.2 11.4456V9.44564ZM2290.66 11.2272C2287.63 12.3805 2285.3 13.9476 2283.77 15.9792L2285.37 17.184C2286.61 15.541 2288.58 14.1615 2291.37 13.0961L2290.66 11.2272ZM2283.77 15.9816C2282.3 17.9388 2281.54 20.0698 2281.54 22.3536H2283.54C2283.54 20.5468 2284.13 18.8298 2285.37 17.1816L2283.77 15.9816ZM2281.54 22.3536C2281.54 25.3363 2282.85 27.6814 2285.39 29.2834L2286.45 27.5918C2284.49 26.3512 2283.54 24.6403 2283.54 22.3536H2281.54ZM2285.4 29.2928C2287.93 30.8246 2291.76 31.5176 2296.74 31.5176V29.5176C2291.87 29.5176 2288.49 28.824 2286.44 27.5824L2285.4 29.2928ZM2296.74 31.5176C2300.93 31.5176 2304.44 30.9902 2307.2 29.8861L2306.45 28.0292C2304.01 29.0051 2300.79 29.5176 2296.74 29.5176V31.5176ZM2307.19 29.8878C2310 28.7779 2312.19 27.0372 2313.7 24.6576L2312.01 23.5856C2310.75 25.5741 2308.92 27.0574 2306.46 28.0275L2307.19 29.8878ZM2312.66 25.102L2324.05 27.39L2324.44 25.4292L2313.05 23.1412L2312.66 25.102ZM2323.36 25.9456C2321.9 28.7346 2319.98 31.029 2317.61 32.843L2318.82 34.4323C2321.44 32.4329 2323.54 29.9087 2325.13 26.8736L2323.36 25.9456ZM2317.6 32.8471C2315.27 34.652 2312.28 36.04 2308.6 36.9851L2309.1 38.9222C2312.98 37.9259 2316.23 36.4366 2318.83 34.4282L2317.6 32.8471ZM2308.61 36.983C2304.94 37.8936 2300.43 38.3576 2295.07 38.3576V40.3576C2300.53 40.3576 2305.21 39.8857 2309.09 38.9243L2308.61 36.983ZM2295.07 38.3576C2287.23 38.3576 2281.36 36.9998 2277.36 34.4103L2276.28 36.089C2280.74 38.9768 2287.04 40.3576 2295.07 40.3576V38.3576ZM2277.37 34.4123C2273.46 31.8591 2271.53 28.292 2271.53 23.6016H2269.53C2269.53 28.9647 2271.8 33.1629 2276.27 36.087L2277.37 34.4123ZM2342 38.6816L2341.03 38.4222L2340.69 39.6816H2342V38.6816ZM2345.74 24.7456L2346.71 25.0051L2346.83 24.5566L2346.56 24.1752L2345.74 24.7456ZM2330.14 2.28164V1.28164H2328.23L2329.32 2.85203L2330.14 2.28164ZM2343.76 2.28164L2344.59 1.71551L2344.29 1.28164H2343.76V2.28164ZM2353.23 16.0616L2352.4 16.6278L2353.03 17.5367L2353.87 16.8269L2353.23 16.0616ZM2369.61 2.28164V1.28164H2369.24L2368.96 1.51641L2369.61 2.28164ZM2384.64 2.28164L2385.28 3.04595L2387.37 1.28164H2384.64V2.28164ZM2357.02 25.5776L2356.38 24.8133L2356.14 25.0151L2356.06 25.3171L2357.02 25.5776ZM2353.49 38.6816V39.6816H2354.25L2354.45 38.9422L2353.49 38.6816ZM2342.96 38.9411L2346.71 25.0051L2344.77 24.4862L2341.03 38.4222L2342.96 38.9411ZM2346.56 24.1752L2330.96 1.71124L2329.32 2.85203L2344.92 25.316L2346.56 24.1752ZM2330.14 3.28164H2343.76V1.28164H2330.14V3.28164ZM2342.94 2.84777L2352.4 16.6278L2354.05 15.4955L2344.59 1.71551L2342.94 2.84777ZM2353.87 16.8269L2370.25 3.04686L2368.96 1.51641L2352.58 15.2964L2353.87 16.8269ZM2369.61 3.28164H2384.64V1.28164H2369.61V3.28164ZM2383.99 1.51732L2356.38 24.8133L2357.67 26.342L2385.28 3.04595L2383.99 1.51732ZM2356.06 25.3171L2352.52 38.4211L2354.45 38.9422L2357.99 25.8382L2356.06 25.3171ZM2353.49 37.6816H2342V39.6816H2353.49V37.6816Z" fill="#373737"/>
</g>
<defs>
<filter id="filter0_d" x="0.851074" y="0.605713" width="2390.52" height="47.752" filterUnits="userSpaceOnUse" color-interpolation-filters="sRGB">
<feFlood flood-opacity="0" result="BackgroundImageFix"/>
<feColorMatrix in="SourceAlpha" type="matrix" values="0 0 0 0 0 0 0 0 0 0 0 0 0 0 0 0 0 0 127 0"/>
<feOffset dy="4"/>
<feGaussianBlur stdDeviation="2"/>
<feColorMatrix type="matrix" values="0 0 0 0 0 0 0 0 0 0 0 0 0 0 0 0 0 0 0.25 0"/>
<feBlend mode="normal" in2="BackgroundImageFix" result="effect1_dropShadow"/>
<feBlend mode="normal" in="SourceGraphic" in2="effect1_dropShadow" result="shape"/>
</filter>
</defs>
</svg>
